<svg width="322" height="42" viewBox="0 0 322 42" fill="none" xmlns="http://www.w3.org/2000/svg">
<path fill-rule="evenodd" clip-rule="evenodd" d="M31.9802 1.01621C37.6229 0.847072 40.0028 2.01991 43.0707 3.67909C43.0707 3.97171 43.0707 4.5277 43.0707 4.55696C42.9732 4.91776 42.8755 5.0155 42.7781 4.84958C31.766 5.74999 23.7584 6.64307 20.246 15.94C20.246 17.5006 20.246 19.0614 20.246 20.622C19.3219 23.6805 15.6498 25.088 18.5195 29.1374C23.9705 36.541 32.4993 33.8603 42.7781 35.5458C42.8755 35.741 42.9732 35.9359 43.0707 36.1311C43.0707 36.5211 43.0707 36.9115 43.0707 37.3016C31.0869 45.251 8.97619 37.0962 12.3452 20.9146C14.7406 9.40837 22.4182 5.46439 31.9802 1.01621ZM279.54 3.67909C291.862 3.84091 291.551 15.255 286.241 21.7925C286.436 22.4752 286.631 23.1582 286.826 23.5775C292.093 26.279 297.361 28.7183 302.365 31.1565C308.304 32.6532 315.746 30.6195 320.771 31.4491C321.161 31.4784 321.551 32.0343 321.941 32.327C321.941 32.717 321.941 33.1074 321.941 33.4975C321.844 33.6926 321.746 33.8875 321.649 33.8194C316.369 36.182 306.821 39.3514 299.117 37.009C292.096 34.8746 283.633 27.2619 275.151 29.1081C274.598 32.0238 275.155 35.8803 274.536 39.3499C273.483 40.7721 272.2 41.5364 269.854 41.6909C269.659 41.3983 269.464 40.8423 269.269 40.8131C269.074 35.6439 268.879 30.4732 268.684 25.304C267.961 21.0972 266.502 15.2971 267.25 9.53157C270.502 5.95043 274.899 6.04671 279.54 3.67909ZM70.6066 4.5277C93.0084 3.94742 93.9861 32.31 73.2109 36.1311C62.1904 38.1581 53.6452 26.9319 56.268 16.2619C57.3902 13.4284 62.0778 7.04777 64.7248 5.69819C66.7729 5.30812 68.8219 4.91776 70.6066 4.5277ZM192.923 4.55696C193.216 4.55696 193.772 4.55696 194.065 4.55696C200.334 9.76771 192.896 22.4907 197.02 30.2786C202.437 30.7828 212.799 29.1341 214.87 32.6489C216.125 33.9604 216.056 34.8947 215.163 36.1311C208.324 37.5471 195.361 37.0754 191.138 33.8194C190.983 25.1869 189.254 11.7596 192.923 4.55696ZM114.5 5.14221C115.739 5.50301 116.714 5.60075 117.426 5.69819C118.837 7.92184 120.125 9.895 120.323 12.7504C120.031 13.209 119.475 13.4039 119.182 13.599C110.653 16.731 106.711 11.8848 104.229 22.1144C103.697 24.6263 104.019 27.3298 104.844 28.8155C110.656 36.3924 121.083 28.8845 125.883 31.4491C125.981 31.6443 126.078 31.8392 126.176 31.771C126.191 34.236 125.773 35.6989 125.005 37.009C110.59 39.1843 93.2036 33.5569 99.8397 17.725C102.945 10.7029 107.711 8.92115 114.5 5.14221ZM158.686 5.69819C166.048 6.65332 174.588 8.71427 177.678 13.8917C184.538 25.3862 169.912 35.6193 160.998 37.009C153.724 38.1432 141.953 29.1722 143.763 20.9146C146.45 11.2583 150.943 9.80078 158.686 5.69819ZM237.958 7.4832C260.105 8.3362 261.393 34.6697 245.303 38.4721C233.778 41.3041 221.842 30.7579 224.234 19.4515C226.362 11.5144 231.508 11.0705 237.958 7.4832ZM279.247 8.65369C277.53 9.82068 275.819 10.1876 274.244 10.9947C273.31 14.2086 272.692 17.1486 274.244 19.7441C279.268 21.0946 283.956 17.4675 286.534 14.2135C286.436 13.5016 286.339 12.526 286.241 11.5507C285.216 9.2685 282.981 8.75465 279.247 8.65369ZM65.3394 12.1652C58.3694 16.0779 59.0117 28.2223 65.3394 31.1565C73.9501 34.8722 83.9324 25.8881 81.9897 18.6029C79.4538 19.549 76.9173 20.2319 74.1181 20.9146C72.7234 19.8419 71.0648 18.7685 69.4068 17.4324C68.3481 15.9453 69.1853 14.232 67.3877 12.7504C66.9684 12.8186 66.2854 12.6237 65.3394 12.1652ZM155.731 13.599C152.294 16.1993 145.101 22.2174 149.615 27.9669C156.121 36.0866 170.057 29.087 172.41 21.7925C170.641 18.4063 164.338 22.2894 159.828 19.4515C159.576 17.184 159.049 15.0619 157.809 13.599C157.292 13.599 156.511 13.599 155.731 13.599ZM234.739 13.9209C230.687 16.8861 225.844 26.9705 231.842 31.1565C241.239 37.2618 251.282 29.9435 251.712 20.9146C251.126 20.3294 250.278 19.4808 249.692 18.8955C246.515 20.7695 245.197 23.246 240.036 22.0851C238.993 20.1477 238.592 16.6625 237.11 14.2135C236.495 14.3795 235.354 14.2817 234.739 13.9209Z" fill="#B2CCDF"/>
</svg>
