<?xml version="1.0" encoding="UTF-8"?>
<svg xmlns="http://www.w3.org/2000/svg" xmlns:xlink="http://www.w3.org/1999/xlink" version="1.1" viewBox="0 0 133.2 39.5">
  <defs>
    <style>
      .cls-1 {
        fill: none;
      }

      .cls-2 {
        fill: #587dbe;
      }

      .cls-3 {
        isolation: isolate;
      }

      .cls-4 {
        fill: #30a043;
      }

      .cls-5 {
        fill: #12100b;
      }

      .cls-6 {
        fill: #f9bd00;
      }

      .cls-7 {
        fill: #fff;
      }

      .cls-8 {
        fill: #afacab;
      }

      .cls-9 {
        fill: #e43628;
      }

      .cls-10 {
        clip-path: url(#clippath);
      }
    </style>
    <clipPath id="clippath">
      <rect class="cls-1" width="133.2" height="39.5"/>
    </clipPath>
  </defs>
  <!-- Generator: Adobe Illustrator 28.7.1, SVG Export Plug-In . SVG Version: 1.2.0 Build 142)  -->
  <g>
    <g id="artwork">
      <g class="cls-10">
        <g>
          <path class="cls-5" d="M128.3,39.5H4.9c-2.7,0-4.9-2.2-4.9-4.9V4.9C0,2.2,2.2,0,4.9,0h123.3c2.7,0,4.9,2.2,4.9,4.9v29.6c0,2.7-2.2,4.9-4.9,4.9h0Z"/>
          <path class="cls-8" d="M128.3,0H4.9C2.2,0,0,2.2,0,4.9v29.6c0,2.7,2.2,4.9,4.9,4.9h123.3c2.7,0,4.9-2.2,4.9-4.9V4.9c0-2.7-2.2-4.9-4.9-4.9h0ZM128.3.8c2.3,0,4.1,1.9,4.1,4.1v29.6c0,2.3-1.9,4.1-4.1,4.1H4.9c-2.3,0-4.1-1.9-4.1-4.1V4.9c0-2.3,1.9-4.1,4.1-4.1h123.3"/>
        </g>
      </g>
      <g class="cls-3">
        <path class="cls-7" d="M43.9,9.6h2.9c0,0,0,.1,0,.2,0,0,0,.2,0,.3,0,.4,0,.7-.2,1.1-.1.3-.3.6-.5.9-.3.3-.6.5-1,.7s-.8.2-1.3.2-.8,0-1.2-.2c-.4-.2-.7-.4-1-.6s-.5-.6-.7-1c-.2-.4-.2-.8-.2-1.2s0-.9.2-1.2c.2-.4.4-.7.7-1,.3-.3.6-.5,1-.6.4-.2.8-.2,1.2-.2s.9,0,1.3.2.7.4,1,.7l-.8.8c-.2-.2-.4-.4-.6-.5s-.5-.2-.9-.2-.5,0-.8.1c-.2,0-.5.2-.6.4-.2.2-.3.4-.4.6-.1.3-.2.5-.2.8s0,.6.2.8c.1.3.3.5.4.6.2.2.4.3.6.4.2,0,.5.1.8.1s.6,0,.8-.1.4-.2.6-.4c.1,0,.2-.2.3-.4,0-.2.1-.3.2-.5h-1.9v-1Z"/>
        <path class="cls-7" d="M49.1,8v1.4h2.4v1.1h-2.4v1.4h2.6v1.1h-3.8v-5.9h3.8v1.1h-2.6Z"/>
        <path class="cls-7" d="M54.1,12.8v-4.9h-1.7v-1.1h4.4v1.1h-1.7v4.9h-1.1Z"/>
        <path class="cls-7" d="M59.8,6.9h1.1v5.9h-1.1v-5.9Z"/>
        <path class="cls-7" d="M63.6,12.8v-4.9h-1.7v-1.1h4.4v1.1h-1.7v4.9h-1.1Z"/>
      </g>
      <g class="cls-3">
        <path class="cls-7" d="M70.5,13c-.4,0-.9,0-1.2-.2s-.7-.4-1-.7c-.3-.3-.5-.6-.6-1-.2-.4-.2-.8-.2-1.2s0-.8.2-1.2c.2-.4.4-.7.6-1,.3-.3.6-.5,1-.7.4-.2.8-.2,1.2-.2s.9,0,1.2.2c.4.2.7.4,1,.7s.5.6.6,1c.2.4.2.8.2,1.2s0,.8-.2,1.2-.4.7-.6,1-.6.5-1,.7c-.4.2-.8.2-1.2.2ZM70.5,11.9c.3,0,.5,0,.8-.1.2,0,.4-.2.6-.4.2-.2.3-.4.4-.6.1-.2.2-.5.2-.8s0-.6-.2-.8-.2-.5-.4-.6c-.2-.2-.4-.3-.6-.4-.2,0-.5-.1-.8-.1s-.5,0-.8.1c-.2,0-.4.2-.6.4-.2.2-.3.4-.4.6-.1.3-.2.5-.2.8s0,.6.2.8c.1.3.2.5.4.6.2.2.4.3.6.4s.5.1.8.1Z"/>
        <path class="cls-7" d="M74.7,6.9h1.3l2.4,4h0v-1.1c0,0,0-2.8,0-2.8h1.1v5.9h-1.2l-2.5-4.2h0v1.1c0,0,0,3.1,0,3.1h-1.1v-5.9Z"/>
      </g>
      <path class="cls-7" d="M105.5,29.6h1.8v-12.3h-1.8v12.3h0ZM122.1,21.7l-2.1,5.4h0l-2.2-5.4h-2l3.3,7.5-1.9,4.2h1.9l5.1-11.6h-2.1ZM111.6,28.2c-.6,0-1.4-.3-1.4-1s1.1-1.3,1.9-1.3,1.2.2,1.7.4c-.1,1.1-1.1,2-2.2,2h0ZM111.9,21.4c-1.3,0-2.7.6-3.3,1.9l1.6.7c.3-.7,1-.9,1.7-.9s1.9.6,1.9,1.6h0c-.3,0-1.1-.4-1.9-.4-1.8,0-3.6,1-3.6,2.8s1.4,2.7,3.1,2.7,1.9-.6,2.3-1.2h0v1h1.8v-4.7c0-2.2-1.6-3.4-3.8-3.4h0ZM100.5,23.2h-2.6v-4.2h2.6c1.4,0,2.2,1.1,2.2,2.1s-.8,2.1-2.2,2.1h0ZM100.4,17.3h-4.4v12.3h1.8v-4.7h2.6c2,0,4.1-1.5,4.1-3.8s-2-3.8-4.1-3.8h0ZM76.4,28.2c-1.3,0-2.3-1.1-2.3-2.5s1.1-2.6,2.3-2.6,2.2,1.1,2.2,2.6-1,2.5-2.2,2.5h0ZM78.5,22.4h0c-.4-.5-1.2-.9-2.2-.9-2.1,0-4,1.8-4,4.2s1.9,4.2,4,4.2,1.8-.5,2.2-1h0v.6c0,1.6-.9,2.5-2.2,2.5s-1.8-.8-2.1-1.5l-1.6.7c.5,1.1,1.7,2.5,3.7,2.5s4-1.3,4-4.4v-7.5h-1.8v.7h0ZM81.5,29.6h1.8v-12.3h-1.8v12.3h0ZM86.1,25.5c0-1.6,1.3-2.5,2.2-2.5s1.3.4,1.6.9l-3.8,1.6h0ZM91.8,24.1c-.3-.9-1.4-2.7-3.6-2.7s-4,1.7-4,4.2,1.8,4.2,4.2,4.2,3-1.2,3.5-1.9l-1.4-1c-.5.7-1.1,1.2-2.1,1.2s-1.6-.4-2-1.3l5.6-2.3-.2-.5h0ZM47.1,22.8v1.8h4.3c-.1,1-.5,1.7-1,2.2-.6.6-1.6,1.3-3.3,1.3-2.6,0-4.7-2.1-4.7-4.7s2-4.7,4.7-4.7,2.5.6,3.2,1.3l1.3-1.3c-1.1-1-2.5-1.8-4.5-1.8-3.6,0-6.6,2.9-6.6,6.5s3,6.5,6.6,6.5,3.4-.6,4.5-1.8c1.2-1.2,1.5-2.8,1.5-4.2s0-.8,0-1.1h-6ZM58,28.2c-1.3,0-2.4-1-2.4-2.5s1.1-2.5,2.4-2.5,2.4,1,2.4,2.5-1.1,2.5-2.4,2.5h0ZM58,21.5c-2.3,0-4.2,1.8-4.2,4.2s1.9,4.2,4.2,4.2,4.2-1.8,4.2-4.2-1.9-4.2-4.2-4.2h0ZM67.2,28.2c-1.3,0-2.4-1-2.4-2.5s1.1-2.5,2.4-2.5,2.4,1,2.4,2.5-1.1,2.5-2.4,2.5h0ZM67.2,21.5c-2.3,0-4.2,1.8-4.2,4.2s1.9,4.2,4.2,4.2,4.2-1.8,4.2-4.2-1.9-4.2-4.2-4.2h0Z"/>
      <path class="cls-9" d="M20.4,19.2l-10.5,11.1h0c.3,1.2,1.4,2.1,2.7,2.1s1-.1,1.4-.4h0s11.8-6.8,11.8-6.8l-5.5-6h0Z"/>
      <path class="cls-6" d="M31.1,17.3h0l-5.1-3-5.8,5.1,5.8,5.8,5.1-2.9c.9-.5,1.5-1.4,1.5-2.5s-.6-2-1.5-2.5h0Z"/>
      <path class="cls-2" d="M9.9,9.1c0,.2-.1.5-.1.7v19.7c0,.2,0,.5.1.7l10.9-10.9-10.9-10.3h0Z"/>
      <path class="cls-4" d="M20.5,19.7l5.4-5.4-11.8-6.8c-.4-.3-.9-.4-1.5-.4-1.3,0-2.4.9-2.7,2.1h0l10.6,10.6h0Z"/>
    </g>
  </g>
</svg>