<svg width="426" height="113" viewBox="0 0 426 113" fill="none" xmlns="http://www.w3.org/2000/svg">
<path fill-rule="evenodd" clip-rule="evenodd" d="M124.774 0.65625C125.441 0.886879 125.94 0.949353 126.271 0.843297C128.236 1.7761 127.727 3.41967 126.813 4.56552C115.584 7.70792 103.408 11.8003 91.4798 14.6848C81.3329 17.5309 71.8786 19.0026 62.2817 21.9609C59.8866 22.6992 58.3691 24.7627 57.2315 24.9724C53.8925 26.2503 51.6659 25.6974 49.1884 27.1982C39.5761 33.0214 29.6588 38.6908 20.009 44.6124C16.2679 47.1418 7.04198 53.7556 2.07119 53.9647C1.55382 53.6344 0.86773 53.1354 0.0136719 52.4684C0.244301 52.2003 0.306774 51.7638 0.369061 51.159C2.83846 46.0899 14.28 40.074 19.4479 36.7564C21.9416 35.1792 24.4361 33.4329 26.7614 31.5191C33.9757 27.5217 42.9466 24.4819 50.6848 21.3998C55.2981 20.2777 59.913 19.155 64.5263 18.0329C67.5647 17.0498 71.1987 15.2839 74.6269 14.479C79.1442 13.4183 82.7883 12.4903 86.972 11.6733C88.7175 11.6733 90.4638 11.6733 92.041 11.6733C95.117 10.7802 97.9302 8.68731 101.375 7.76405C103.058 7.8701 104.742 7.80763 106.425 7.577C112.597 5.43868 118.771 3.13126 124.774 0.65625ZM224.096 16.7236C234.347 16.7191 250.731 30.7306 242.988 40.6657C237.957 47.486 228.838 51.5834 219.027 53.5906C215.369 54.5704 209.133 53.4576 206.14 54.5072C203.22 55.6547 196.587 69.4308 194.15 72.6695C193.589 72.7755 192.859 72.7131 192.298 72.4824C192.404 72.4637 192.342 72.1083 192.28 71.9213C190.31 66.3869 203.553 57.3595 201.651 52.2813C200.961 50.587 199.186 50.175 198.826 47.6051C199.076 47.5241 199.325 47.2746 199.574 47.0253C202.327 47.1768 202.542 48.7863 204.643 48.9145C207.322 47.3953 213.696 37.8233 214.931 34.8672C216.343 32.2478 216.616 28.8347 218.279 26.6371C218.591 26.6371 218.903 26.6371 219.046 26.6371C221.797 31.2654 210.928 45.2395 208.946 49.2698C209.133 49.7685 209.488 50.2676 209.675 50.5979C221.35 52.3668 231.694 45.472 237.919 40.3103C240.019 38.7945 243.698 35.5591 242.221 30.9579C240.907 27.1818 237.553 24.8634 234.178 22.7278C220.541 14.9467 206.374 23.5954 197.33 29.6486C197.268 29.6486 197.205 29.6486 197.143 29.6486C198.92 22.9358 205.737 21.6914 211.938 19.1552C213.104 18.5318 214.102 17.9082 214.931 17.1164C218.154 17.0977 221.21 16.7423 224.096 16.7236ZM425.546 19.7351C427.003 20.9339 424.432 25.9729 423.844 27.404C420.862 35.6923 419.632 44.0316 418.046 53.5906C417.371 57.8991 418.956 63.8521 417.298 66.684C417.111 66.684 416.755 66.684 416.568 66.684C416.549 66.6653 416.194 66.3099 416.007 66.1228C415.988 63.0493 415.633 59.8066 415.614 56.3964C417.625 43.5079 419.467 28.6935 425.546 19.7351ZM73.1492 20.2962C73.6293 20.4833 73.9411 20.8387 74.0844 20.8574C74.0723 26.3087 67.3698 34.4129 64.9004 38.2528C57.7821 49.9754 49.0408 59.431 40.9583 69.6767C36.7857 75.2214 33.7636 81.3743 28.8003 85.9311C27.6802 85.9075 27.5459 85.7562 26.7614 85.37C26.8675 85.2452 26.805 85.1207 26.7427 84.8276C26.8759 80.4114 30.9971 78.7377 33.1023 76.0176C34.7856 73.5239 36.4694 71.0294 38.1526 68.5357C43.9973 59.7957 51.9288 52.4654 57.9983 44.0325C63.6259 36.6524 67.4248 27.5666 73.1492 20.2962ZM32.5599 33.5579C32.6035 33.6201 32.4789 33.6826 32.3542 33.7449C32.4164 33.8697 32.4789 33.9943 32.5412 33.9507C32.853 33.932 33.1648 33.5766 33.3081 33.5579C33.2271 33.5579 32.9776 33.5579 32.5599 33.5579ZM30.1096 34.8672C29.9225 34.8859 29.5672 35.2413 29.5484 35.4283C29.5484 35.4906 29.5484 35.5531 29.5484 35.4471C29.7978 35.4906 30.0473 35.3661 30.2966 35.073C30.4214 35.1165 30.546 34.992 30.5024 34.8672C30.4837 34.8672 30.1283 34.8672 30.1096 34.8672ZM82.4828 49.8497C83.8749 50.3287 83.9446 51.3956 84.9332 51.7015C89.4775 52.858 96.8945 49.2085 101.188 51.7015C101.001 51.8262 100.645 51.9508 100.626 51.9072C95.8956 54.2855 76.0473 52.618 79.6958 60.8855C82.689 61.2134 91.3104 58.0942 92.5834 59.1833C89.8497 63.2311 80.5531 63.3646 75.9362 65.543C72.8681 66.9905 70.8289 71.666 68.6413 73.9788C68.7036 74.5835 68.7661 75.0201 68.8284 75.4565C72.5033 76.734 81.8916 71.8396 87.7202 72.6695C87.9646 73.5864 87.8156 73.9407 87.5331 74.3529C82.6067 76.3422 76.3578 76.5952 70.8859 78.2622C68.9962 78.8379 65.7011 80.9503 63.5911 80.1514C59.7169 78.3914 68.2951 71.0165 69.2025 68.7415C69.2648 67.663 69.3272 66.4157 69.3895 65.0005C71.298 63.9108 73.8272 63.238 75.188 61.4279C76.2478 59.7447 77.308 58.0609 78.1995 56.2093C78.6171 55.3178 78.8667 54.2577 78.9477 53.0295C79.8432 52.133 81.5592 51.0141 82.4828 49.8497ZM117.479 52.8237C118.271 52.886 118.895 52.9485 119.518 52.8425C122.539 55.3547 119.942 59.3031 120.453 62.7372C121.299 63.6904 122.932 63.9011 124.381 64.0653C124.257 64.5455 124.132 64.8573 124.007 65.0005C118.073 65.658 118.459 69.4119 117.461 74.54C117.211 74.7706 116.962 74.833 116.713 74.8953C116.463 74.7083 116.214 74.3529 115.964 74.3342C115.497 72.2363 115.805 69.0552 114.674 67.2451C105.148 66.0618 106.328 70.3929 100.832 72.6695C100.564 72.4637 100.128 71.9213 99.6912 71.5472C99.7978 65.7203 113.007 55.162 117.479 52.8237ZM257.765 54.5259C263.56 54.5395 268.524 57.7708 268.969 62.0078C267.544 64.7054 258.535 67.8405 255.52 69.658C255.564 70.0508 255.439 70.7803 255.315 71.3414C258.861 76.1441 264.989 75.2674 270.465 78.2622C268.858 82.4923 255.903 75.4047 254.566 75.6622C252.612 76.4533 252.837 80.5294 251.013 81.4607C249.064 80.4953 248.931 77.0032 249.535 73.9788C251.37 67.9793 253.542 58.444 257.765 54.5259ZM237.171 56.1906C237.607 56.3154 238.044 56.4399 238.48 56.3964C238.747 60.5733 234.966 64.9265 236.629 68.1803C238.425 68.5294 240.326 68.9431 240.931 69.8638C240.974 70.0508 240.85 70.4062 240.725 70.4249C232.832 71.8063 236.261 75.1766 235.113 82.3772C234.802 82.3772 234.49 82.3772 234.178 82.3772C233.804 82.1279 233.262 81.8784 232.888 81.4607C232.433 78.6367 231.809 75.6432 231.185 72.4824C230.513 71.9828 226.713 71.6342 225.032 71.9213C221.756 73.1261 216.54 80.4982 213.79 82.9571C207.157 82.5085 214.532 76.3968 215.679 74.914C219.563 71.3708 223.796 68.6182 227.819 65.0005C229.315 63.6102 230.812 62.0512 232.139 60.3244C234.552 58.989 235.838 58.5846 237.171 56.1906ZM286.364 56.5834C286.383 56.5834 286.739 56.5834 286.757 56.5834C287.549 57.3316 288.173 58.2481 288.796 58.828C292.132 60.6799 301.16 57.9853 304.901 58.6222C307.455 63.6392 303.914 68.9738 303.012 73.0436C302.825 76.2668 302.469 79.3224 302.451 82.3772C302.139 82.6266 301.827 82.8761 301.347 82.9571C301.079 82.9384 300.642 82.583 300.206 82.3959C298.554 75.8792 304.085 62.7223 302.638 60.3244C302.575 60.3244 302.513 60.3244 302.451 60.3244C299.102 60.6017 296.718 62.3751 293.846 62.756C291.976 62.9866 290.105 63.0491 288.067 62.943C287.487 63.6912 286.57 64.6077 285.822 65.1876C284.841 68.0017 284.394 78.5777 282.455 79.5902C282.374 79.8209 282.125 79.8833 281.707 79.7773C281.626 79.7586 281.376 79.4032 280.959 79.2161C279.545 74.2755 282.978 69.9188 282.249 65.1876C280.557 63.4361 278.241 64.4097 276.451 61.6337C276.576 61.4279 276.7 60.8855 276.657 60.5114C281.975 59.1534 283.658 61.2037 286.364 56.5834ZM258.868 56.9575C257.684 57.8417 256.961 58.2391 256.063 59.1833C256.456 60.8666 257.185 62.5504 257.578 64.0653C257.809 64.0653 257.871 64.0653 257.765 64.0653C260.477 63.9591 263.388 62.0212 264.854 60.3244C264.866 57.3649 261.941 57.0001 258.868 56.9575ZM115.964 58.2668C114.53 59.6197 113.096 60.8045 111.662 61.9891C111.662 62.1948 111.662 62.7373 111.662 62.943C111.681 63.2361 112.036 63.3607 112.223 63.3171C113.24 64.1594 114.852 63.628 115.964 63.2984C116.815 62.1166 117.921 60.1697 116.918 58.2668C117.024 58.2668 116.962 58.2668 116.731 58.2668C116.588 58.2668 116.276 58.2668 115.964 58.2668ZM323.044 58.828C323.985 59.9993 324.236 61.9244 324.896 62.756C328.422 62.7664 332.402 62.573 336.138 63.2984C336.431 63.5477 336.555 63.7973 336.68 63.8783C334.492 67.4015 319.945 63.6577 322.296 70.4249C322.589 70.612 322.714 70.9673 322.839 70.9861C325.799 71.0766 332.659 69.678 333.893 70.9861C333.875 71.3601 333.519 71.9026 333.332 72.1083C331.381 73.0872 329.26 73.8978 327.141 74.54C322.815 75.8545 318.168 75.5145 319.285 81.2549C324.74 83.7511 332.15 79.3515 337.447 80.1327C337.678 80.6313 337.74 81.1304 337.634 81.4607C336.306 83.7318 317.792 87.7451 315.75 84.6218C314.692 83.2354 315.21 80.3614 315.75 78.8233C318.349 72.2149 320.781 65.6047 323.044 58.828ZM360.622 59.9503C361.557 60.2434 362.493 60.3679 363.428 60.3244C364 61.2607 364.936 62.3471 364.195 63.5042C363 65.9794 356.941 65.5087 354.842 67.2451C355.073 67.8498 355.136 68.2864 355.03 68.5544C357.006 72.2073 363.282 73.1019 364.195 78.842C365.415 84.7593 351.87 87.2433 346.799 85.9498C346.718 85.6195 346.469 85.1205 346.051 84.6218C349.74 81.3503 357.768 82.4055 361.183 78.842C361.183 78.6986 361.183 78.387 361.183 77.9068C358.227 74.698 344.866 68.1888 353.533 62.0078C355.613 60.8754 358.259 61.0495 360.622 59.9503ZM416.755 106.132C417.36 106.195 417.796 106.257 418.064 106.151C418.064 106.382 418.064 106.444 418.064 106.338C418.171 106.756 418.108 107.005 418.046 107.255C417.055 109.265 413.265 110.74 410.77 111.37C410.77 111.307 410.77 111.245 410.77 111.014C412.367 108.762 415.013 108.031 416.755 106.132Z" fill="#4F393D"/>
<path d="M397.844 27.4033C398.432 25.9722 399.108 20.9339 397.651 19.7351C391.571 28.6935 394.625 43.5072 392.614 56.3957C392.633 59.8059 392.988 63.0486 393.007 66.1221L393.568 66.6833H394.297C395.955 63.8514 394.37 57.8984 395.046 53.5899C396.632 44.0309 394.862 35.6916 397.844 27.4033Z" fill="#4F393D"/>
<path d="M395.064 106.15C394.796 106.256 394.36 106.194 393.755 106.132C392.013 108.03 393.528 107.688 391.931 109.94L392.614 112.36C395.109 111.73 394.055 109.264 395.046 107.253C395.108 107.004 395.17 106.755 395.064 106.337V106.15Z" fill="#4F393D"/>
</svg>
