<svg width="700" height="76" viewBox="0 0 700 76" fill="none" xmlns="http://www.w3.org/2000/svg">
<path fill-rule="evenodd" clip-rule="evenodd" d="M462.174 0.777344C463.201 1.06645 464.062 1.18932 464.923 1.14634C465.126 1.80425 465.661 2.29647 465.864 2.78834C465.849 3.81654 465.736 4.02651 464.738 4.09828C464.313 3.31934 464.105 2.80367 462.912 2.25332C459.764 1.05686 451.285 6.88695 449.056 7.97271C438.438 14.1039 427.319 22.3181 419.924 31.5883C418.087 34.3698 414.044 38.4442 415.293 43.7651C417.149 52.0829 443.812 49.1147 451.289 47.455C452.76 45.6241 452.509 41.8273 453.687 39.7061C456.186 36.4787 460.08 34.3279 463.262 31.5883C466.135 29.4313 466.875 26.1661 471.196 24.2084C477.443 21.7843 483.851 25.8964 484.849 31.0348C485.293 33.5637 483.986 35.7627 483.373 37.1232C479.859 46.0323 472.249 51.1314 461.233 52.0489C457.532 52.3572 456.072 48.4201 452.746 48.931C450.348 49.8964 447.949 50.696 445.551 51.4955C435.294 53.7116 418.894 52.7283 414.02 46.3296C408.472 38.5621 415.472 33.1377 418.983 28.6179C422.428 24.1842 426.516 21.3688 430.976 17.751C437.205 13.0954 443.564 7.15095 451.27 3.89532C453.363 3.01103 455.632 1.59096 457.543 1.12787C459.705 0.604083 460.735 1.82768 462.174 0.777344ZM43.5326 14.2271C43.8402 14.3502 44.1475 14.4731 44.4551 14.4301C44.5656 28.9956 27.4532 46.9967 19.5665 54.6504C19.7722 55.649 19.8632 55.811 20.1015 56.1263C23.3911 56.8512 31.0248 54.9395 34.6952 54.2629C41.0188 53.177 52.9274 55.6077 58.1078 53.1744C63.4555 51.0001 70.6086 41.8437 73.9745 37.1047C76.0918 34.1236 77.4034 31.0377 80.2474 28.6363C80.6779 29.0483 81.1085 29.2944 81.5389 29.3743C81.9693 31.2007 82.4 32.8615 82.6643 34.3557C83.1883 36.7284 82.1101 40.358 83.1994 41.7356C83.8757 42.1046 84.5525 42.6396 85.2288 42.8426C85.2288 43.0701 85.2288 43.1317 85.2288 43.0271C81.1325 46.7904 85.2017 57.6945 82.4798 62.3808C82.5844 62.3808 82.5228 62.3808 82.4614 62.3808C82.2155 62.3808 81.9693 62.3808 81.7234 62.3808C79.5113 58.8056 81.7679 48.5456 80.0629 45.979C79.3052 45.0783 73.6864 45.2388 71.5761 45.7761C68.4081 46.5827 62.1306 55.057 59.5838 57.4178C47.3755 56.7645 30.8328 56.0451 19.5665 59.4288C16.6579 60.5972 13.5823 61.7658 10.3417 62.9342C7.78268 64.5842 4.96357 68.3099 0.729377 67.0116C0.606317 66.7473 0.483442 66.3166 0.194336 65.7202C2.39557 62.4815 7.59321 61.6121 10.8767 59.4288C13.1519 57.3995 15.4279 55.3697 17.7031 53.1744C25.2859 45.7569 32.1621 38.0021 37.8132 28.2673C39.7194 23.6985 41.6264 18.9621 43.5326 14.2271ZM631.173 21.81C639.874 22.0967 646.57 31.335 639.457 36.5512C636.647 38.6119 624.606 38.5237 623.055 40.6102C623.055 40.9175 623.055 41.2251 623.055 41.3666C625.035 45.0857 633.034 48.8968 636.339 51.1449C647.679 59.0829 659.711 68.5813 675.268 71.2551C681.803 72.5715 688.726 71.1088 693.145 69.2256C695.397 68.5168 697.69 65.7126 699.806 66.6426C699.836 74.2758 682.823 77.3064 674.696 74.945C657.925 70.5813 646.647 62.0133 633.737 53.7279C630.037 51.5663 623.487 44.0737 618.793 43.7651C615.897 45.9303 616.29 50.8562 613.627 52.8054C613.381 52.91 613.135 52.8484 612.889 52.6209C611.784 52.2969 611.265 51.4006 611.063 49.669C614.061 42.6974 617.666 35.0526 621.561 28.6363C622.374 27.4973 621.501 25.6405 622.686 24.5589C624.946 22.8824 628.762 23.1555 631.173 21.81ZM348.893 21.9945C349.305 22.4064 349.551 22.6525 349.631 22.8985C351.073 26.6338 344.616 33.9419 345.941 36.5512C346.93 37.9907 357.246 33.838 360.129 34.3557C359.883 34.8292 359.637 35.1367 359.391 35.4442C353.176 37.8527 340.164 40.8734 337.989 46.883C338.008 47.086 338.358 47.621 338.377 47.99C344.52 48.7348 353.781 44.2206 358.099 45.2226C358.099 45.5299 358.099 45.8375 358.099 45.979C352.896 49.9428 342.459 53.2019 334.502 51.1449C334.299 50.8805 333.764 50.4499 333.561 49.8535C333.515 43.5086 339.243 40.6871 341.882 36.5697C344.203 33.7004 346.369 29.6387 347.602 25.8689C348.275 24.7283 348.127 23.3411 348.69 22.345C348.813 22.2835 348.936 22.2219 348.893 21.9945ZM335.037 23.452C335.345 23.5134 335.652 23.575 335.96 23.4704C335.536 29.9437 329.778 37.3012 327.288 41.9201C326.082 44.4056 325.782 46.9292 323.986 48.562C323.176 48.6789 323.263 48.7708 322.861 48.0085C321.883 45.8154 324.121 43.0169 324.724 41.3666C327.963 35.6039 330.667 28.2181 335.037 23.452ZM173.418 23.6549C173.621 23.8824 174.156 23.944 174.359 24.0055C174.728 24.2084 175.263 24.7434 175.632 25.1124C175.694 25.3584 175.755 25.6045 175.651 25.6844C174.279 27.5458 172.135 28.3347 170.282 29.7249C164.458 34.0935 158.142 38.3781 153.511 43.9496C151.695 46.6622 148.181 50.2795 150.559 53.9124C159.966 57.8237 181.026 51.7431 183.4 45.241C183.443 44.9152 183.32 44.423 183.197 43.7651C179.014 41.7068 172.509 44.1988 168.64 45.4255C161.346 41.5791 188.898 34.7133 186.536 45.4255C185.202 53.0211 169.808 56.2839 161.979 57.7868C157.513 58.9052 150.334 58.4248 148.327 55.5729C145.61 52.1036 147.491 46.1132 149.618 43.0271C155.463 35.1681 164.916 29.1955 173.418 23.6549ZM300.905 24.0055C300.924 24.0055 301.274 24.0055 301.459 24.0055C303.407 25.6414 302.914 30.5835 305.149 31.5883C305.395 31.8158 305.641 31.8774 305.887 31.9388C307.62 30.42 312.505 25.275 315.112 26.2379C315.112 26.7113 315.112 27.0189 315.112 27.1604C312.92 34.395 302.701 31.9626 307.178 43.2116C307.978 44.546 308.777 45.7146 309.411 46.883C309.515 47.129 309.454 47.3751 309.392 47.455C308.637 47.9148 308.067 47.978 307.178 47.6395C304.876 46.1196 304.534 42.7876 302.4 40.6286C302.259 40.6286 301.951 40.6286 301.643 40.6286C297.709 42.8603 295.574 47.1425 292.234 49.669C291.927 49.7736 291.619 49.7119 291.312 49.4845C291.25 49.4046 291.189 49.1585 290.961 48.7465C293.257 43.1276 299.419 40.091 300.924 35.6472C302.417 32.4154 299.334 27.5033 300.905 24.0055ZM366.236 24.7619C367.309 24.9019 367.798 24.9387 368.247 25.1309C368.062 25.5429 367.712 25.789 367.527 25.8689C362.737 26.5906 359.128 30.0618 351.845 28.8208C351.049 28.1459 351.371 27.5078 351.845 26.4224C355.063 26.1632 363.948 26.0879 366.236 24.7619ZM562.909 24.7619C564.065 25.2839 564.497 25.4802 564.92 26.2379C565.711 30.5584 555.595 40.0403 554.607 44.872C557.003 47.003 561.238 44.625 564.57 44.872C568.256 45.4539 581.107 47.0225 583.757 45.2226C585.215 42.9474 586.506 40.6714 587.632 38.2302C588.782 37.3509 589.766 36.3051 590.75 35.0937C592.362 32.8117 591.374 30.7322 593.905 29.1898C600.86 25.891 609.497 31.1829 610.509 35.9977C612.709 44.31 599.29 54.3109 590.196 52.0489C588.351 50.8805 586.506 49.7119 584.495 48.5435C583.308 48.8509 581.955 49.1586 580.436 49.3C576.568 50.1485 571.803 49.4752 568.075 48.7465C562.002 47.9268 555.318 51.3665 549.625 50.038C549.422 49.7736 548.887 49.343 548.684 48.7465C547.405 46.5384 550.342 43.837 551.101 42.2706C554.145 37.3988 558.452 27.5823 562.909 24.7619ZM629.881 25.1124C627.971 26.1119 625.976 25.9932 624.513 27.3449C624.616 29.0856 625.357 29.5061 625.454 30.4813C626.127 32.858 624.464 33.6432 625.251 35.4442C629.283 36.0494 638.183 34.1083 638.922 30.8318C640.573 25.455 634.567 24.927 629.881 25.1124ZM275.094 25.1309C275.463 25.3584 275.998 25.42 276.367 25.3154C279.417 27.0534 278.177 33.3489 278.766 36.7542C279.525 37.359 281.689 37.718 282.087 38.4147C280.319 39.2375 278.119 40.2971 277.308 41.9201C276.541 44.678 278.395 53.1434 274.891 51.1449C274.294 48.7718 274.74 44.723 274.153 42.2706C273.846 42.0861 273.538 41.7356 273.065 41.7171C264.06 39.2124 261.889 50.539 257.198 53.7279C256.529 53.7354 256.815 53.9153 256.442 53.1744C255.383 50.5261 259.658 46.5646 260.87 44.6875C263.451 41.2079 265.876 37.1914 267.899 33.2488C268.637 31.6931 269.541 29.9706 270.113 28.0828C271.14 28.003 272.001 27.7568 272.862 27.3449C273.661 26.7729 274.461 25.8689 275.094 25.1309ZM510.678 25.6844C512.395 25.7602 513.37 25.9691 513.833 26.7914C514.061 27.2648 514.122 27.5723 514.184 27.7139C513.999 27.9413 513.649 28.0029 513.464 28.0644C509.276 30.3859 491.872 39.8244 495.937 45.7945C499.917 46.7825 512.923 44.6132 514.202 45.4255C514.307 45.7146 514.245 45.8375 514.184 45.7945C509.499 47.6596 494.894 52.7229 492.247 45.7945C489.376 37.685 505.587 28.5349 510.678 25.6844ZM475.089 27.1604C472.007 29.0371 456.793 40.8445 456.27 44.1341C457.322 45.432 457.35 46.0609 457.543 47.455C459.682 48.626 463.015 47.8303 464.941 47.086C472.728 45.1458 483.685 39.3386 480.808 28.6363C479.423 27.627 478.261 27.2583 475.089 27.1604ZM212.532 27.7139C214.209 27.8406 214.444 28.1592 215.133 28.6363C215.86 31.0959 215.894 34.1663 216.406 36.7542C217.003 37.5811 217.866 37.7016 218.62 38.0457C214.211 42.8476 217.175 48.0127 215.483 54.2814C215.176 54.5089 214.869 54.5705 214.395 54.4659C212.557 51.4008 214.243 44.6385 212.163 41.1821C202.083 41.4055 200.591 49.4116 195.023 53.9124C194.881 54.017 194.574 53.9554 194.266 53.7279C194.02 53.2176 193.774 52.5408 193.528 51.6984C195.927 48.9129 198.325 45.9602 200.724 42.8426C204.233 38.0226 207.638 31.4348 212.532 27.7139ZM233.767 28.2673C234.639 28.6771 234.317 28.433 234.505 28.8208C236.914 34.5059 227.223 43.6296 227.863 47.99C228.273 48.6961 228.029 48.3738 228.583 48.562C230.356 49.3723 233.176 47.9895 234.856 47.455C238.037 46.9235 250.932 45.3366 253.49 45.7945C253.49 46.022 253.49 46.0836 253.49 45.979C253.182 46.5755 252.875 47.0061 252.401 47.4365C249.454 48.0478 245.454 49.1223 242.051 49.669C239.222 50.038 236.393 50.573 233.564 50.942C230.169 51.948 225.64 55.2535 221.941 54.4659C221.756 53.9556 221.406 53.2788 221.387 52.6024C225.468 44.818 229.317 36.0409 233.767 28.2673ZM273.803 28.2673C272.144 30.2741 269.833 34.1738 269.375 37.1232C270.611 39.1953 273.515 38.1992 274.891 37.1232C275.477 35.0758 276.15 31.9338 275.629 29.1714C275.383 28.9254 275.137 28.6793 274.891 28.2673C274.584 28.2673 274.276 28.2673 273.803 28.2673ZM533.556 28.6363C539.265 28.8053 545.009 28.952 546.673 33.2303C548.27 36.5756 545.887 39.4835 544.459 41.1821C541.739 45.6154 532.572 55.4605 524.331 52.2519C522.537 51.7556 521.104 50.2462 520.106 48.5435C516.424 40.6688 529.091 31.6032 533.556 28.6363ZM539.275 32.3263C532.569 35.9228 523.513 38.0564 522.855 47.086C523.285 47.6825 523.716 48.1131 524.146 48.5435C531.093 50.4708 544.681 39.6954 543.519 33.4333C542.651 32.4842 541.372 32.3993 539.275 32.3263ZM600.177 32.6953C596.571 35.0762 587.38 41.9819 588.739 47.455C597.094 50.6243 609.082 42.4852 607.17 34.9092C605.304 33.6821 603.776 32.8255 600.177 32.6953ZM212.163 33.4333C210.942 34.5317 210.237 35.6321 209.211 36.5697C209.334 37.1232 209.457 37.8427 209.414 38.2302C212.341 38.8894 213.571 36.9206 212.901 33.9867C212.655 33.9683 212.408 33.6177 212.163 33.4333ZM78.956 34.5402C77.3147 36.9699 75.5101 39.1766 74.3435 41.7356C74.362 42.1046 74.7125 42.6396 74.731 42.8426C75.0201 42.8426 75.143 42.8426 75.266 42.8426C76.8472 43.4817 79.0117 42.9121 80.0629 42.2706C80.4958 40.6878 80.821 36.5435 79.7124 34.9092C79.505 34.6919 79.5279 34.8234 78.956 34.5402Z" fill="#281318"/>
</svg>
