<svg width="470" height="86" viewBox="0 0 470 86" fill="none" xmlns="http://www.w3.org/2000/svg">
<path fill-rule="evenodd" clip-rule="evenodd" d="M334.189 0.386719C335.653 0.854706 336.144 1.25795 336.782 1.97222C336.169 5.40377 331.065 5.33536 327.448 5.96242C322.638 7.489 298.856 11.0778 297.345 13.8899C297.172 20.4692 296.999 26.8124 296.826 32.916C293.941 48.539 289.227 55.2882 277.899 61.7193C271.791 65.5525 259.573 67.4839 254.848 61.1908C254.848 61.1644 254.848 60.6623 254.848 60.6358C255.427 60.6358 255.773 60.6358 255.885 60.6358C262.374 64.0959 270.083 61.9172 275.824 59.3146C287.456 54.042 297.436 35.046 293.974 15.9775C291.517 12.8675 285.979 14.795 281.814 15.4754C272.8 18.4435 263.551 21.1748 254.07 23.6673C253.785 23.4648 253.033 23.0243 252.515 22.346C252.834 22.3196 252.921 21.8175 252.774 21.791C257.18 20.6022 261.138 18.2797 264.701 16.7967C274.354 14.4803 283.776 11.9255 293.196 9.37123C303.06 7.08599 312.416 5.40036 321.717 3.05567C325.952 2.32476 330.188 1.35546 334.189 0.386719ZM44.3097 10.9567C45.6743 11.4591 46.0933 11.6689 46.384 12.8065C48.0216 18.8385 41.436 29.7429 39.0981 33.6823C29.9925 49.0252 19.3445 62.4182 9.82494 77.0458C10.1446 77.7241 10.2312 78.1643 10.0842 78.6048C10.4039 78.6048 10.4905 78.6048 10.3435 78.6048C15.3386 77.9495 19.9767 74.0791 24.0596 72.025C34.0934 67.7999 50.909 62.8357 62.9781 61.455C63.2978 61.7193 63.3844 62.2213 63.2374 62.4856C61.0804 66.4456 53.6053 66.1412 48.6916 67.5063C36.5431 70.8816 25.187 75.4154 14.9847 80.481C12.2477 82.1416 5.84412 86.8246 2.27975 85.4753C1.23743 84.9817 1.20997 84.9992 0.75 83.6256C9.83531 73.1991 16.8813 61.4859 24.8374 50.0658C28.6398 44.8693 32.4436 39.6715 36.0126 34.4751C38.8977 29.908 42.3386 23.3012 43.0133 17.8272C42.9873 16.242 42.4947 14.656 42.4687 13.0707C43.16 12.3662 43.8518 11.6612 44.3097 10.9567ZM438.914 12.8065C439.519 12.8945 440.124 12.9827 440.729 13.0707C441.014 13.511 441.766 13.9515 442.284 14.392C442.284 15.0085 442.284 15.6252 442.284 16.2417C437.704 21.7025 433.123 27.1646 428.309 32.6253C427.668 35.3238 434.929 43.0706 436.088 44.5166C442.392 50.8205 449.17 57.334 456.052 62.4856C460.746 65.7142 465.484 67.3869 469.25 71.2058C469.25 71.6461 469.25 72.0869 469.25 72.2893C468.904 72.8178 468.558 73.5841 468.213 73.8748C462.01 73.8618 458.544 68.5908 454.497 65.6566C443.818 57.2624 435.419 47.6614 425.716 37.9103C425.431 37.9983 424.679 38.0866 424.394 37.9368C417.339 41.4291 413.04 54.217 406.503 58.284C402.22 56.7622 405.951 51.941 407.307 48.771C410.923 42.771 417.84 38.8207 421.282 32.0968C420.31 27.085 412.388 21.2041 414.541 15.9775C414.887 15.9775 415.233 15.9775 415.578 15.9775C418.545 18.8094 420.755 27.0362 425.198 27.3668C430.838 23.9796 434.675 17.6856 438.914 12.8065ZM391.491 14.392C393.759 14.4144 394.421 14.9451 395.613 15.4754C395.613 15.8013 395.613 15.8895 395.613 15.9775C394.317 18.5317 392.787 21.0866 391.491 23.6408C391.292 26.0188 390.86 28.3976 390.194 30.7756C388.34 37.8786 384.544 44.2552 380.342 49.2995C378.919 51.7409 373.732 56.0987 369.685 55.3508C358.735 53.3272 363.535 39.1542 365.303 31.0663C366.39 27.9552 366.078 24.2885 367.611 21.791C367.697 21.791 367.784 21.791 367.87 21.791C368.216 21.879 368.562 21.9673 368.907 22.0553C369.192 22.4955 369.944 22.936 370.463 23.3765C370.2 33.3042 364.597 41.3017 366.833 50.6208C366.859 50.9466 367.351 51.0349 367.611 50.885C372.093 52.8561 376.004 47.1496 377.723 44.7808C380.868 40.4463 383.977 35.7154 386.02 30.2471C388.324 24.0784 387.66 18.4561 391.491 14.392ZM328.485 17.8272C330.489 18.2791 330.988 19.7872 332.348 20.2055C336.803 21.5757 347.024 15.6937 351.017 19.9413C350.844 19.9677 350.671 20.4698 350.498 20.4962C344.794 21.9301 335.329 21.9285 331.052 24.9621C330.489 27.765 329.417 30.2281 330.015 32.6518C334.345 33.8396 340.519 29.8911 345.079 29.2165C345.338 29.8948 345.831 30.335 345.857 30.7756C345.745 31.3921 345.399 32.0088 344.82 32.6253C341.618 33.8295 327.441 37.4492 325.633 39.7601C325.002 41.7858 324.137 43.8121 323.273 45.6C322.015 48.0261 320.177 49.7733 319.669 52.7348C320.075 53.1489 320.248 53.3248 320.421 53.5011C326.917 54.6529 333.145 49.2036 339.349 50.3565C339.781 50.885 340.213 51.6513 340.645 52.1798C340.559 52.6201 340.472 53.0606 340.386 53.5011C336.142 55.3788 319.064 60.3673 314.198 57.2006C314.025 56.2318 313.853 55.2626 313.68 54.056C315.318 51.1316 320.891 45.6148 318.632 41.0813C317.251 40.7637 316.549 40.079 315.754 38.7295C315.948 37.7901 316.078 37.8564 316.298 36.8798C322.127 36.3232 328.39 32.5212 325.373 25.2263C323.403 24.7123 321.692 24.3654 320.68 22.346C320.767 22.3196 320.853 21.8175 320.94 21.791C324.746 20.0972 326.046 20.8761 328.485 17.8272ZM143.097 20.232C144.021 20.5578 144.713 20.6461 145.171 20.4962C145.69 21.1746 146.442 21.6151 146.727 22.0553C146.727 22.4955 146.727 22.936 146.727 23.3765C144.785 26.5061 134.777 34.8989 135.318 38.7295C136.686 44.9209 152.088 47.1731 153.727 53.7653C156.23 61.7515 132.424 71.1443 124.947 67.5063C125.094 67.2421 125.007 66.74 124.921 66.4758C131.092 62.4346 148.938 62.3371 149.812 53.5011C145.411 48.4108 136.365 46.6488 132.7 41.0813C127.937 33.8477 140.231 24.1035 143.097 20.232ZM125.466 23.6673C126.131 23.9931 126.563 24.0813 126.762 23.9315C126.909 24.3456 126.822 24.5216 126.503 24.46C118.981 26.1163 111.259 28.1447 104.178 29.4808C101.413 30.0093 98.6467 30.7756 95.8812 31.0663C94.0209 32.527 93.7079 35.1759 92.2772 36.8798C91.754 38.3448 90.2958 39.0717 90.7215 41.0813C91.1278 41.1077 91.3005 41.6098 91.2401 41.6363C95.5473 41.6003 98.2003 38.489 102.363 39.4958C102.363 39.5838 102.363 39.6721 102.363 39.7601C102.104 40.2003 101.611 40.6408 101.352 41.0813C97.5977 42.6301 90.5452 44.7404 87.0656 47.1855C85.5042 48.6273 76.9294 61.8937 76.6942 64.0711C76.7201 64.1591 77.2128 64.2473 77.4721 64.3353C80.6156 65.4616 86.45 61.208 88.6213 59.6053C91.0072 58.3432 109.495 52.8669 112.216 53.2368C112.302 53.2632 112.389 53.7653 112.475 54.0296C112.475 54.6461 112.475 55.2629 112.475 55.6415C109.932 57.166 106.137 57.0967 103.141 58.0198C95.8325 61.0896 79.0039 72.0774 71.0159 67.0043C71.1629 66.5376 71.0763 65.8326 70.7566 64.8903C71.878 59.3881 77.826 57.5954 78.5092 51.6513C77.4026 50.1062 76.6255 49.5173 77.7314 47.4498C85.2651 45.2013 89.2021 37.9973 90.2029 29.4808C92.5222 28.6127 93.4538 27.2534 94.8441 25.4906C97.042 25.693 97.6496 26.6834 99.0186 27.0761C103.456 28.1064 114.223 24.9401 117.428 23.9315C120.409 23.5534 123.128 24.9608 125.466 23.6673Z" fill="#E69F9F"/>
</svg>
