<svg width="470" height="84" viewBox="0 0 470 84" fill="none" xmlns="http://www.w3.org/2000/svg">
<path fill-rule="evenodd" clip-rule="evenodd" d="M291.25 0.796875C292.223 1.30762 292.266 1.24785 292.75 2.02185C292.75 2.8551 292.75 3.68862 292.75 4.29688C291.361 6.09438 290.704 4.8446 288.525 5.77185C286 7.93835 283.25 10.1054 280.275 12.2719C271.447 19.2254 263.642 28.1261 257.25 37.7719C254.809 41.4554 248.664 49.5976 252.525 55.2969C255.033 58.8311 262.852 59.6789 268 58.2969C280.169 55.7869 289.386 53.7289 296.525 46.2969C298.787 44.5281 304.809 41.4629 303 37.5219C298.714 36.5626 292.22 36.8191 287.025 37.7719C284.487 38.3016 280.314 40.8861 277.525 39.7969C277.333 39.6886 276.917 39.3551 276.5 39.0219C276.583 38.3554 276.667 37.6884 276.75 36.7969C280.223 34.5376 296.455 30.2016 303.25 32.5219C305.166 34.3551 307.084 36.1886 309 37.7969C307.984 47.7054 285.778 59.5874 275.5 61.2969C266.208 63.2709 254.453 63.3224 250.25 56.7969C245.557 49.9871 250.481 40.9709 253.775 36.0469C256.739 32.6151 258.959 29.0619 261.525 25.5219C269.422 15.7924 281.66 8.90112 291.25 0.796875ZM107 8.77185C107.025 8.77185 107.5 8.77185 107.75 8.77185C111.108 11.1559 110.505 19.8141 109.25 24.7969C108.514 28.0761 108.269 31.7721 108.25 35.0469C108.244 36.3789 105.658 38.4761 105.025 40.0469C103.371 48.5439 102.215 58.3501 98.25 64.7969C97.6668 65.1051 97.0833 65.1886 96.275 65.0469C95.6268 64.7279 95.0415 64.6931 94.275 63.5469C92.9173 59.1831 102.817 43.6656 99.75 38.0469C86.1285 38.6076 80.1858 41.6686 76.775 53.5469C75.2453 60.4389 75.9618 61.1746 72.5 66.0219C70.6647 66.0201 70.4705 65.7084 69.275 64.7969C69.4168 64.8551 69.3333 64.6886 69.025 64.5219C69.2958 58.0346 76.0878 47.7414 75.025 44.2719C74.4168 43.1054 73.5832 41.9384 72.75 40.7719C72.9973 39.4104 73.3637 39.3741 74 38.2969C75.6665 38.0219 77.3335 37.2969 78.775 36.7969C81.2843 35.4369 86.1785 22.0176 85.275 17.7969C85.0833 17.6886 84.6668 17.3551 84.025 17.0219C78.7965 15.6304 64.865 19.2234 59.025 20.0469C56.1298 20.8546 51.4003 20.4931 49.775 22.5469C47.2098 26.0676 46.9255 32.4801 45.5 36.7969C42.0505 48.0116 37.7115 58.5014 33.525 68.2969C32.104 72.6856 30.1445 80.6594 26.275 82.7719C26.25 82.9386 25.775 83.1051 25.525 83.0469C25.1668 82.8554 24.5833 82.4386 23.775 81.7969C24.2378 76.4414 28.9952 71.0744 31 66.2969C34.7947 57.9049 37.2245 49.0601 40.775 39.7969C42.1088 37.3676 46.6162 25.8161 45.75 23.0469C45.5833 23.1051 45.4167 22.9386 45.25 22.5469C42.7235 21.1819 37.044 23.3521 34.025 23.7719C23.6495 25.3641 10.6178 27.6631 4.75 34.2719C2.89875 34.2814 1.8415 33.9171 0.75 33.0469C0.8245 31.8749 1.00475 31.8124 1.5 31.0219C5.5015 29.3114 9.49002 26.4804 13.775 24.7969C30.1518 19.7986 48.4657 19.5081 65.5 15.7719C73.3193 14.0569 84.6388 11.2969 90.25 15.7719C90.2087 22.4991 84.977 30.5336 85.525 35.5219C90.3008 37.2431 99.2585 35.8474 102.025 34.0219C103.333 29.8556 104.417 25.6881 105.275 21.2969C106.335 17.2604 105.084 11.7149 107 8.77185ZM408.25 9.29688C409.963 10.1569 409.395 12.2426 409.775 13.2969C410.775 13.7969 412 14.5219 413 14.7969C415.25 14.5219 417.5 13.7969 419.525 13.2969C423.384 12.8151 432.431 14.3074 433.5 16.2969C433.333 16.6051 433.167 16.6886 433 16.5469C425.357 18.2756 416.722 18.3179 409.275 19.7969C407.677 22.8689 405.654 26.8334 405 30.5219C405.417 30.5469 405.833 31.0219 406.25 31.0469C409.75 30.3554 413.25 29.4384 416.75 28.2969C416.917 28.6886 417.083 28.8551 417.25 29.0219C417.25 29.2969 417.25 30.0219 417.25 30.5219C415.295 34.0424 408.723 36.1834 404.75 37.5219C403.334 37.9384 401.917 38.3551 400.275 38.5469C399.584 41.1049 398.666 43.4389 397.75 45.7719C397.051 47.8566 396.383 50.8429 397.5 52.7719C397.667 52.8551 397.833 52.9386 398 52.7969C404.343 53.0116 414.928 47.2141 419.275 49.2719C419.275 49.6051 419.275 49.9386 419.275 50.0469C416.619 53.3739 396.23 63.1204 392.275 55.7719C389.875 50.7354 396.277 44.1034 393.525 39.5219C390.662 39.8101 389.258 40.5661 388 37.7969C388.951 32.5786 394.296 35.7276 397.75 32.7969C399.933 31.3119 402.62 24.4684 402.525 21.0219C402.084 20.2719 401.417 19.2969 400.525 18.7719C401.474 14.4721 403.336 16.3521 406 14.2719C406.525 12.6886 407.5 11.1051 408.25 9.29688ZM339.775 11.5469C341.442 11.9246 341.407 12.1779 342.025 12.5469C343.996 20.2346 339.916 26.5564 339.525 34.0219C340.629 34.6304 341.357 35.1289 341.525 36.0469C340.667 37.0469 339.583 38.2719 338.275 39.2719C336.599 43.3139 337.346 56.5504 334 58.0469C333.417 57.9386 332.833 57.6051 332.025 57.2719C330.841 52.5284 333.416 46.9694 332.525 42.2719C330.981 40.3176 329.04 42.0859 327 42.5219C325.334 42.6886 323.667 42.8551 321.775 42.7969C316.973 45.4759 315.648 53.5251 310.75 56.2969C305.635 54.0306 311.944 45.2536 313.275 41.5469C315 40.2721 316.5 38.7716 318 37.2719C324.562 28.8671 332.251 18.9761 339.775 11.5469ZM467 12.7969C467.583 13.0469 468.167 13.5219 468.75 13.7719C468.917 14.6884 469.083 15.6054 469.25 16.2969C467.926 19.4321 462.462 19.2579 459.25 20.0469C453.666 22.0346 447.579 24.2376 444.775 29.0219C441.7 35.1424 451.249 44.7359 449.5 54.0219C446.909 67.7791 430.451 71.3176 418.775 76.2719C415.581 77.7514 408.156 81.5601 403.75 80.2969C403.75 80.4386 403.75 80.3551 403.75 80.0469C405.36 76.0899 410.357 76.1659 414 73.7969C423.34 68.5259 435.192 65.1021 443 57.7969C452.315 49.5756 438.682 38.7539 440.75 29.5469C442.961 20.1674 452.762 15.9701 461.775 13.2969C463.667 13.3551 465.334 13.1886 467 12.7969ZM387.25 13.2969C388.932 13.9164 389.088 14.7001 390 15.7719C389.888 25.2134 383.838 33.2291 382.25 41.2969C381.6 44.9129 382.472 50.4921 380 51.7969C379.417 51.7969 378.833 51.7969 378.25 51.7969C376.086 47.0151 380.663 39.7661 378.75 35.7719C378.667 35.7719 378.583 35.7719 378.5 35.7719C376.417 37.6051 374.333 39.4386 372.25 41.0469C370.299 41.3094 369.268 40.9761 367.775 40.5219C366.914 38.2226 366.818 35.1494 366.025 31.7969C366.083 31.9386 365.917 31.8551 365.525 31.5469C365.417 31.9386 365.083 32.1051 364.75 32.2719C364.084 35.8039 358.836 52.8091 356.525 54.2719C356.5 54.4386 356.025 54.6051 356 54.5469C354.995 54.3274 354.736 54.2601 354.25 53.0469C352.878 50.7889 355.011 45.6701 355.75 42.7969C357.75 37.0224 359.75 31.0214 361.75 24.7969C362.691 22.0229 362.949 18.6159 364.5 16.0469C364.833 16.0469 365.167 16.0469 365.275 16.0469C368.597 18.6969 371.728 21.4276 370.75 27.7719C370.38 30.1731 370.151 32.1614 371.25 34.0219C371.333 34.0219 371.417 34.0219 371.5 34.0219C376.595 32.9179 383.215 17.5031 387.25 13.2969ZM154.775 17.2719C157.06 17.1769 159.502 17.2536 160.5 18.0469C160.333 18.2969 160.167 18.7719 160 19.0219C157.898 19.2926 129.601 27.8934 128.775 28.2969C127.644 29.9416 126.063 36.9406 127.775 38.0469C128.009 38.2751 147.315 33.8934 149.75 32.7969C150.916 32.1886 152.084 31.3551 153.25 30.5219C153.417 30.6051 153.583 30.6886 153.75 30.7719C153.833 31.1884 153.917 31.6051 154 31.7969C149.56 38.2856 138.02 40.8666 130.025 43.2969C128.344 44.1731 125.663 43.9079 124.5 45.0469C123.065 46.9546 120.296 55.0956 122.525 56.7969C129.323 61.1261 147.74 51.4139 153.25 54.5219C152.053 60.0096 120.929 66.3176 117.25 58.2969C115.855 53.2776 118.644 48.1741 118 42.7719C120.604 39.6571 123.398 34.9806 124.5 30.5219C125.199 27.6906 124.578 23.5914 126.75 22.5219C128.5 22.5469 130.25 23.0219 131.775 23.0469C134.083 22.3554 136.167 21.4384 138.025 20.5219C144.538 18.9449 150.625 20.0571 154.775 17.2719ZM335.25 24.2719C331.883 27.1944 329.024 31.2854 326.5 34.7969C326.583 35.0469 326.667 35.5219 326.75 35.7719C326.917 35.7969 327.083 36.2719 327.25 36.2969C330.234 36.5559 332.501 35.7199 334.25 34.2969C334.89 32.2736 337.549 25.6771 335.25 24.2719Z" fill="#E69F9F"/>
</svg>
