<svg width="290" height="39" viewBox="0 0 290 39" fill="none" xmlns="http://www.w3.org/2000/svg">
<path fill-rule="evenodd" clip-rule="evenodd" d="M28.7858 1.73334C33.865 1.58109 36.0072 2.63681 38.7688 4.13031C38.7688 4.39371 38.7688 4.89417 38.7688 4.92051C38.6811 5.24529 38.5931 5.33327 38.5054 5.18392C28.593 5.99441 21.385 6.79831 18.2234 15.1669C18.2234 16.5716 18.2234 17.9766 18.2234 19.3813C17.3915 22.1344 14.0861 23.4014 16.6693 27.0463C21.5759 33.7107 29.2531 31.2977 38.5054 32.8149C38.5931 32.9906 38.6811 33.166 38.7688 33.3417C38.7688 33.6928 38.7688 34.0442 38.7688 34.3953C27.9816 41.5509 8.07892 34.2104 11.1115 19.6447C13.2677 9.28747 20.1786 5.73733 28.7858 1.73334ZM251.624 4.13031C262.716 4.27597 262.436 14.5503 257.656 20.4349C257.832 21.0495 258.008 21.6642 258.183 22.0417C262.924 24.4734 267.666 26.6691 272.17 28.8638C277.516 30.2111 284.215 28.3805 288.738 29.1272C289.089 29.1536 289.44 29.654 289.792 29.9174C289.792 30.2685 289.792 30.6199 289.792 30.971C289.704 31.1467 289.616 31.3222 289.528 31.2608C284.776 33.3875 276.181 36.2404 269.246 34.1319C262.927 32.2106 255.308 25.3582 247.673 27.02C247.176 29.6445 247.677 33.1159 247.12 36.2391C246.172 37.5192 245.017 38.2072 242.906 38.3463C242.73 38.0829 242.555 37.5825 242.379 37.5561C242.203 32.9031 242.028 28.2488 241.852 23.5958C241.202 19.8091 239.888 14.5882 240.562 9.39836C243.489 6.17484 247.447 6.2615 251.624 4.13031ZM63.555 4.89417C83.7198 4.37185 84.5998 29.9022 65.8992 33.3417C55.9792 35.1663 48.2873 25.0611 50.6482 15.4566C51.6584 12.9061 55.8778 7.1626 58.2606 5.94778C60.1041 5.59667 61.9485 5.24529 63.555 4.89417ZM173.657 4.92051C173.921 4.92051 174.421 4.92051 174.685 4.92051C180.328 9.61093 173.632 21.0634 177.345 28.0736C182.221 28.5275 191.548 27.0434 193.412 30.2072C194.542 31.3877 194.48 32.2288 193.676 33.3417C187.52 34.6163 175.851 34.1917 172.051 31.2608C171.911 23.4904 170.354 11.4039 173.657 4.92051ZM103.065 5.44732C104.18 5.77209 105.059 5.86007 105.699 5.94778C106.97 7.94938 108.128 9.7255 108.307 12.2958C108.044 12.7085 107.543 12.884 107.28 13.0597C99.6024 15.8789 96.0544 11.5166 93.8199 20.7247C93.3411 22.9857 93.6308 25.4193 94.3731 26.7566C99.6048 33.5769 108.991 26.8188 113.312 29.1272C113.399 29.3029 113.487 29.4783 113.575 29.417C113.588 31.6359 113.212 32.9526 112.522 34.1319C99.5458 36.09 83.8954 31.0245 89.8689 16.7736C92.6641 10.4528 96.9544 8.8489 103.065 5.44732ZM142.839 5.94778C149.465 6.80753 157.152 8.66268 159.934 13.3231C166.109 23.6698 152.944 32.881 144.92 34.1319C138.372 35.1528 127.777 27.0777 129.406 19.6447C131.824 10.9527 135.869 9.64069 142.839 5.94778ZM214.195 7.55454C234.13 8.32236 235.29 32.0262 220.806 35.4489C210.433 37.9981 199.688 28.5051 201.841 18.3277C203.757 11.1832 208.389 10.7836 214.195 7.55454ZM251.361 8.60815C249.815 9.6586 248.275 9.98891 246.857 10.7154C246.016 13.6083 245.461 16.2547 246.857 18.5911C251.38 19.8067 255.6 16.5418 257.92 13.6128C257.832 12.9719 257.744 12.0938 257.656 11.2158C256.733 9.16156 254.722 8.69903 251.361 8.60815ZM58.8137 11.769C52.5397 15.2909 53.1179 26.2227 58.8137 28.8638C66.5646 32.2085 75.5501 24.1215 73.8013 17.5638C71.5187 18.4154 69.2355 19.0302 66.7158 19.6447C65.4604 18.6791 63.9674 17.7129 62.475 16.5102C61.522 15.1716 62.2756 13.6294 60.6575 12.2958C60.2801 12.3572 59.6653 12.1817 58.8137 11.769ZM140.179 13.0597C137.085 15.4003 130.61 20.8174 134.674 25.9927C140.53 33.3016 153.075 27.001 155.193 20.4349C153.6 17.3868 147.927 20.8822 143.866 18.3277C143.64 16.2866 143.165 14.3764 142.049 13.0597C141.584 13.0597 140.881 13.0597 140.179 13.0597ZM211.298 13.3494C207.65 16.0185 203.29 25.0958 208.69 28.8638C217.148 34.3595 226.188 27.772 226.575 19.6447C226.048 19.1179 225.284 18.3541 224.757 17.8272C221.898 19.5141 220.711 21.7433 216.065 20.6983C215.126 18.9543 214.765 15.8172 213.431 13.6128C212.878 13.7622 211.851 13.6742 211.298 13.3494Z" fill="#E69F9F"/>
</svg>
