<svg width="158" height="129" viewBox="0 0 158 129" fill="none" xmlns="http://www.w3.org/2000/svg">
<path fill-rule="evenodd" clip-rule="evenodd" d="M9.64793 76.9926C6.81442 75.3915 6.08762 74.8199 4.63241 73.0485C3.12078 71.2084 1.86697 69.0744 1.86697 68.3418C1.86697 68.1631 1.6163 67.5255 1.30992 66.925C0.809012 65.9431 0.765816 65.5096 0.881237 62.6222C0.951833 60.8563 1.18368 58.5155 1.39646 57.4205C1.72372 55.7363 3.11572 52.1995 4.00812 50.7847C4.14625 50.5657 4.32794 50.2074 4.41189 49.9884C4.49583 49.7694 4.6688 49.3278 4.79626 49.0071C5.18897 48.0189 6.17679 47.5816 8.1514 47.5221C10.5007 47.4512 11.4226 47.961 11.4226 49.331C11.4226 49.8386 11.3247 50.2539 11.205 50.2539C10.9477 50.2539 10.4039 53.8001 10.3707 55.6953C10.3579 56.4252 10.236 58.2169 10.0998 59.6768C9.56122 65.4491 9.80429 71.8555 10.6671 74.6301C10.9413 75.5117 10.7711 77.3318 10.4152 77.3244C10.3124 77.3223 9.96707 77.1729 9.64793 76.9926Z" fill="#B2CCDF"/>
<path fill-rule="evenodd" clip-rule="evenodd" d="M75.5385 128.612C75.4964 128.57 74.7001 128.487 73.7691 128.427C72.0106 128.315 71.0415 128.155 70.6522 127.915C70.39 127.753 68.7847 127.481 67.4311 127.369C66.9202 127.327 66.1117 127.166 65.6345 127.012C65.1574 126.858 64.7077 126.735 64.6353 126.738C64.0789 126.761 62.1906 126.321 61.9234 126.105C61.7409 125.957 61.5916 125.908 61.5916 125.995C61.5916 126.083 61.2631 126.027 60.8616 125.871C60.4601 125.716 59.718 125.536 59.2124 125.47C58.7068 125.405 58.229 125.261 58.1507 125.149C58.0723 125.038 57.4707 124.792 56.8137 124.602C56.1568 124.412 55.4178 124.078 55.1715 123.859C54.9252 123.64 54.5967 123.539 54.4415 123.635C54.1887 123.791 54.0426 123.456 54.1279 122.916C54.1452 122.806 54.0399 122.717 53.8939 122.717C53.7479 122.717 53.6285 122.896 53.6285 123.115C53.6285 123.334 53.509 123.513 53.3631 123.513C53.2171 123.513 53.0945 123.304 53.0908 123.048C53.0824 122.482 50.9906 121.072 49.4479 120.593C48.8274 120.4 48.3198 120.142 48.3198 120.02C48.3198 119.897 48.2302 119.81 48.1207 119.825C48.0112 119.841 47.6827 119.775 47.3908 119.679C47.0988 119.583 46.7404 119.488 46.5945 119.469C46.4485 119.45 46.1136 119.16 45.8503 118.826C45.587 118.491 44.9001 118.076 44.324 117.903C43.7479 117.73 43.2765 117.482 43.2765 117.35C43.2765 117.219 43.1571 117.185 43.0111 117.275C42.8651 117.365 42.7456 117.341 42.7456 117.221C42.7456 117.005 41.981 116.531 41.0867 116.194C40.8312 116.098 40.6222 115.92 40.6222 115.798C40.6222 115.522 37.8883 113.692 37.4758 113.692C37.3084 113.692 37.1715 113.565 37.1715 113.411C37.1715 113.256 37.058 113.2 36.9194 113.285C36.7807 113.371 36.5376 113.199 36.3792 112.903C36.2207 112.607 35.9796 112.365 35.8433 112.365C35.5436 112.365 34.0392 111.053 32.5542 109.498C30.657 107.511 25.9017 102.497 25.6156 102.182C25.4644 102.016 24.7148 101.103 23.9498 100.155C23.1848 99.2056 22.4425 98.285 22.3003 98.1086C22.1581 97.9323 22.0417 97.7169 22.0417 97.63C22.0417 97.5431 21.7523 97.0461 21.3985 96.5255C21.0448 96.005 20.8181 95.4155 20.8948 95.2157C20.9715 95.0159 20.496 93.9252 19.8381 92.792C19.1803 91.6588 18.3792 90.0746 18.058 89.2717C17.7368 88.4688 17.2048 87.1548 16.8756 86.3519C15.9953 84.2042 15.7678 83.5215 15.1506 81.1759C14.8433 80.008 14.3531 78.3022 14.0612 77.3852C13.6827 76.1965 13.4864 74.635 13.3771 71.9438C13.2927 69.868 13.1841 67.5723 13.1357 66.8424C12.7618 61.2076 12.7808 59.7749 13.2734 56.4186C13.5556 54.4954 13.912 52.6875 14.0653 52.401C14.2186 52.1146 14.344 51.4926 14.344 51.0189C14.344 50.0716 14.7252 48.672 15.2996 47.5105C15.504 47.0972 15.6712 46.425 15.6712 46.0167C15.6712 45.6084 15.8558 45.1212 16.0815 44.934C16.3071 44.7467 16.4316 44.4369 16.3582 44.2455C16.2847 44.0542 16.3988 43.7235 16.6115 43.5107C16.8243 43.2979 16.9984 43.0194 16.9984 42.8917C16.9984 42.7641 17.3543 42.1758 17.7892 41.5843C18.2241 40.9929 18.5122 40.4413 18.4294 40.3584C18.3466 40.2756 18.5879 39.6803 18.9658 39.0356C19.3436 38.3908 19.6528 37.6794 19.6528 37.4546C19.6528 37.2298 19.8388 36.8915 20.0662 36.7028C20.2937 36.514 20.6362 35.9851 20.8275 35.5273C21.0187 35.0696 21.4858 34.3599 21.8654 33.9503C22.245 33.5407 22.6352 32.9547 22.7325 32.6481C22.8298 32.3414 23.192 31.8683 23.5373 31.5967C23.8826 31.325 24.1671 30.9622 24.1694 30.7903C24.1733 30.4996 24.5655 29.9831 26.4755 27.7533C28.9768 24.8332 37.5465 16.8111 38.1669 16.809C38.3494 16.8083 38.4987 16.7013 38.4987 16.5712C38.4987 16.441 38.7674 16.2631 39.0959 16.1758C39.4244 16.0886 40.0975 15.6576 40.5918 15.218C41.086 14.7785 41.6356 14.4189 41.813 14.4189C41.9904 14.4189 43.0512 13.762 44.1702 12.959C45.2893 12.1561 46.2926 11.4979 46.3997 11.4963C46.7349 11.4915 49.7353 9.21347 50.7087 8.22472C51.4029 7.51953 52.0708 7.17134 53.3513 6.84702C54.2937 6.60832 55.4285 6.21923 55.8729 5.98237C56.3174 5.74552 57.0315 5.50711 57.4599 5.45258C57.8883 5.39805 58.7914 5.07341 59.4668 4.73115C60.1422 4.3889 61.7465 3.80397 63.0319 3.43132C64.3174 3.05866 65.5344 2.61653 65.7365 2.44881C65.9386 2.2811 66.104 2.22065 66.104 2.31448C66.104 2.40832 66.5649 2.24993 67.1283 1.96251C67.6917 1.67509 68.3785 1.44275 68.6546 1.44621C68.9306 1.44966 69.6343 1.32844 70.2182 1.17684C71.4156 0.865975 78.4624 0.745041 79.1767 1.0231C79.4734 1.1386 79.6412 1.07945 79.6412 0.859362C79.6412 0.646636 79.7766 0.700007 79.9951 0.998852C80.308 1.4267 80.4627 1.4454 81.3278 1.1599C81.9236 0.963272 82.7423 0.910522 83.4204 1.02508C84.033 1.12859 85.016 1.23849 85.6048 1.26931C86.1935 1.30012 87.3322 1.4101 88.1351 1.5137C90.5029 1.8192 91.9161 1.97515 93.0457 2.05557C93.6296 2.09715 94.2866 2.1967 94.5055 2.2768C94.7245 2.3569 95.5009 2.56835 96.2309 2.74669C96.9608 2.92504 98.2747 3.28629 99.1507 3.54949C106.497 5.75676 108.328 6.364 109.37 6.93727C110.027 7.29887 110.937 7.79563 111.393 8.04119C111.849 8.28674 112.552 8.74717 112.955 9.06436C113.359 9.38155 113.815 9.64106 113.97 9.64106C114.261 9.64106 116.136 10.8471 116.755 11.4328C116.948 11.6152 117.232 11.7646 117.387 11.7646C117.542 11.7646 117.862 11.9752 118.098 12.2328C118.334 12.4903 119.065 13.0414 119.722 13.4576C120.379 13.8737 121.478 14.7978 122.164 15.511C122.851 16.2243 123.508 16.8115 123.624 16.816C123.741 16.8205 124.252 17.3879 124.761 18.0768C125.269 18.7658 126.214 19.8333 126.86 20.449C127.506 21.0648 128.233 21.8712 128.476 22.2411C128.719 22.611 130.373 24.4444 132.152 26.3154C134.359 28.6372 135.6 30.1751 136.058 31.1593C136.427 31.9523 137.098 33.3179 137.549 34.1938C140.873 40.6556 141.291 41.6703 142.309 45.7403C142.874 48.0031 143.339 50.1233 143.341 50.4518C143.344 50.7802 143.472 51.049 143.627 51.049C143.781 51.049 143.836 51.165 143.749 51.3067C143.661 51.4484 143.89 52.5533 144.258 53.762C144.693 55.1894 145.069 57.4397 145.331 60.1828C145.832 65.4231 145.832 67.1358 145.332 69.4967C145.116 70.5185 144.939 71.6884 144.939 72.0965C144.939 72.5045 144.751 73.6393 144.522 74.6182C143.302 79.8371 143.001 80.9773 142.659 81.6812C142.453 82.1051 142.284 82.6486 142.284 82.8889C142.284 83.1293 142.189 83.4394 142.072 83.5781C141.955 83.7168 141.61 84.4872 141.304 85.2902C140.105 88.4431 139.922 88.8594 139.905 88.4754C139.889 88.1215 139.859 88.1215 139.63 88.4754C139.488 88.6944 139.371 89.0911 139.369 89.357C139.366 89.6229 139.185 90.0196 138.966 90.2386C138.747 90.4576 138.568 90.9306 138.568 91.2898C138.568 91.6489 138.401 92.0069 138.196 92.0855C137.992 92.164 137.751 92.429 137.661 92.6744C137.347 93.5332 136.795 94.3053 135.871 95.1766C135.358 95.6598 134.856 96.3873 134.754 96.7931C134.652 97.199 134.155 98.1201 133.649 98.8401C133.143 99.56 132.729 100.255 132.729 100.384C132.729 100.719 131.017 102.543 130.703 102.543C130.409 102.543 129.469 103.749 129.202 104.468C129.107 104.723 128.846 104.932 128.623 104.932C128.399 104.932 128.216 105.115 128.216 105.339C128.216 105.562 128.037 105.814 127.818 105.898C127.599 105.982 127.42 106.221 127.42 106.429C127.42 106.637 127.241 106.876 127.022 106.96C126.803 107.044 126.624 107.279 126.624 107.482C126.624 107.686 126.53 107.852 126.415 107.852C126.199 107.852 124.887 108.878 123.786 109.909C123.436 110.238 123.118 110.507 123.079 110.507C122.832 110.507 120.519 112.887 120.519 113.142C120.519 113.316 120.422 113.398 120.304 113.325C120.186 113.252 119.754 113.547 119.345 113.981C118.936 114.414 118.047 115.147 117.37 115.61C116.693 116.073 115.425 117.042 114.552 117.764C113.68 118.487 112.595 119.233 112.142 119.422C111.689 119.611 111.165 119.951 110.978 120.177C110.791 120.402 110.532 120.522 110.404 120.443C110.276 120.364 109.662 120.639 109.041 121.055C108.419 121.47 107.612 121.954 107.247 122.129C106.882 122.304 106.404 122.553 106.185 122.683C104.69 123.569 100.285 125.269 98.222 125.756C97.4191 125.945 95.7468 126.468 94.5059 126.917C92.1967 127.753 89.9879 128.252 87.87 128.414C86.257 128.538 75.6352 128.709 75.5389 128.612H75.5385ZM87.8509 105.234C89.2275 104.922 90.7276 104.667 91.1845 104.667C91.6414 104.667 92.247 104.492 92.5304 104.277C92.8138 104.063 93.3443 103.883 93.7092 103.878C94.8749 103.86 99.9491 102.368 101.179 101.681C101.833 101.316 103.077 100.815 103.944 100.566C105.443 100.137 107.98 99.0962 108.839 98.5577C109.058 98.4205 110.084 97.8885 111.118 97.3756C112.153 96.8626 113.222 96.1975 113.493 95.8975C113.765 95.5976 114.566 95.061 115.275 94.7052C115.983 94.3494 116.981 93.6642 117.491 93.1825C118.352 92.3704 118.406 92.2252 118.24 91.1874C118.142 90.5717 117.96 90.068 117.836 90.068C117.713 90.068 117.22 90.3064 116.742 90.5979C116.264 90.8893 115.545 91.1282 115.143 91.1287C114.742 91.1287 114.413 91.2326 114.413 91.3583C114.413 91.484 113.906 91.8371 113.285 92.143C112.665 92.449 111.022 93.2526 109.635 93.9289C108.248 94.6052 106.994 95.2458 106.848 95.3525C106.702 95.4592 106.045 95.7101 105.388 95.9101C104.731 96.1101 103.958 96.4302 103.67 96.6215C103.382 96.8128 102.931 96.9693 102.666 96.9693C102.402 96.9693 101.742 97.1662 101.199 97.4068C100.657 97.6475 99.6749 98.0509 99.018 98.3033C98.361 98.5557 97.1665 99.0279 96.3636 99.3526C95.5607 99.6774 94.3125 100.047 93.59 100.174C92.8674 100.301 91.6916 100.615 90.977 100.872C89.7455 101.315 89.6602 101.315 89.3416 100.88C88.9362 100.325 88.5522 100.271 88.7541 100.798C88.9192 101.228 87.6306 101.533 85.2153 101.634C84.4124 101.668 82.7998 101.833 81.6319 102.002C79.0682 102.371 72.495 102.526 72.3069 102.222C72.2328 102.102 72.0614 102.072 71.9258 102.156C71.6784 102.309 68.0742 101.983 64.1132 101.448C60.6019 100.974 58.4461 100.415 54.8839 99.0543C52.9556 98.3176 50.8384 97.6958 49.9733 97.612C49.1369 97.531 47.9449 97.4005 47.3244 97.3219C46.35 97.1985 46.1971 97.2461 46.2022 97.6714C46.2156 98.7858 48.0753 100.158 50.3105 100.704C51.0405 100.882 51.7572 101.119 51.9032 101.23C52.0492 101.341 52.7658 101.517 53.4958 101.621C54.2257 101.725 55.1954 102.035 55.6506 102.309C56.1058 102.584 56.8637 102.809 57.3349 102.809C57.8061 102.809 58.5262 103.047 58.935 103.338C59.6516 103.849 61.7827 104.487 63.715 104.77C64.6377 104.906 65.7718 105.193 67.2984 105.678C67.7546 105.823 71.7797 105.903 76.7214 105.866C84.423 105.807 85.6164 105.739 87.8509 105.234ZM82.1628 95.4601C82.4548 95.303 83.4701 94.9801 84.419 94.7425C88.6702 93.6782 91.2958 92.7444 93.5036 91.5115C93.9015 91.2893 94.2984 91.1219 94.3857 91.1396C94.5827 91.1793 96.9258 88.9749 98.365 87.3958L99.4374 86.2192L99.0814 84.6352C98.8857 83.764 98.6798 83.0055 98.6241 82.9497C98.3667 82.6924 96.6751 83.5093 96.3742 84.0364C95.741 85.1452 92.4481 87.6517 90.4841 88.5199C89.4111 88.9942 88.4735 89.4518 88.4005 89.5367C88.3275 89.6216 87.8498 89.8248 87.3388 89.9882C85.787 90.4844 84.5762 90.9233 84.0908 91.1653C83.8373 91.2917 83.2777 91.3952 82.8473 91.3952C82.4168 91.3952 81.7284 91.5289 81.3174 91.6923C80.2396 92.121 73.3214 92.0194 70.6164 91.5352C68.3615 91.1316 67.5639 90.9527 67.5639 90.8507C67.5639 90.8209 67.3202 90.7696 67.0224 90.7366C66.7246 90.7037 66.0079 90.4681 65.4298 90.2133C62.3573 88.8586 61.1968 88.0028 60.1934 86.3519C59.8829 85.8409 59.5628 85.3632 59.4821 85.2902C59.0435 84.8934 58.3858 83.3506 58.3824 82.7106C58.3733 80.9578 58.7571 77.4337 58.9886 77.144C59.1275 76.9703 59.2687 76.1342 59.3025 75.286C59.3362 74.4377 59.495 73.5048 59.6552 73.2128C59.8154 72.9209 60.035 72.0848 60.1432 71.3548C60.2514 70.6249 60.5021 69.5647 60.7003 68.9989C60.8985 68.433 61.0607 67.6476 61.0607 67.2535C61.0607 66.8593 61.3455 65.7097 61.6937 64.6988C62.0418 63.6879 62.4106 62.1596 62.5131 61.3025C62.6156 60.4453 62.8765 59.2509 63.0929 58.6481C63.3092 58.0453 63.8944 56.1785 64.3932 54.4997C64.8921 52.8208 65.4279 51.0621 65.584 50.5915C65.7401 50.1209 65.9689 48.5084 66.0924 47.0081C66.2159 45.5079 66.5282 43.4511 66.7865 42.4375C67.4456 39.8503 67.0969 38.029 65.2109 34.2093C63.6495 31.047 63.2974 30.6156 61.857 30.0997C61.346 29.9167 60.6294 29.6139 60.2644 29.4267C59.8994 29.2395 59.1382 29.0031 58.5727 28.9012C58.0073 28.7994 57.3503 28.6154 57.1128 28.4924C55.4217 27.6162 54.2163 27.4514 50.2442 27.5534C47.5999 27.6214 46.1963 27.5635 46.1963 27.3865C46.1963 27.2375 46.047 27.1703 45.8645 27.2372C45.682 27.3041 45.5589 27.4822 45.5909 27.633C45.6229 27.7837 45.0555 28.0495 44.3301 28.2235C43.6046 28.3975 43.0111 28.6389 43.0111 28.7598C43.0111 28.8808 42.3383 29.2314 41.516 29.5391C37.8416 30.9138 32.6219 34.6813 30.8072 37.2682C30.2059 38.1254 29.5609 38.9191 29.3739 39.0319C29.1868 39.1448 28.7163 39.7105 28.3283 40.289C27.4952 41.5311 27.7154 41.961 28.9622 41.5264C29.5947 41.3059 29.9115 41.3058 30.1768 41.5259C30.4576 41.759 30.5356 41.7102 30.5356 41.3016C30.5356 40.6901 31.4027 39.6738 32.5195 38.9763C32.9536 38.7052 33.4314 38.3771 33.5812 38.2472C33.731 38.1174 34.2119 37.7857 34.6499 37.5102C35.0878 37.2346 36.145 36.525 36.9992 35.9333C37.8534 35.3416 38.645 34.8574 38.7584 34.8574C38.8718 34.8574 39.1078 34.6848 39.2829 34.4738C39.5407 34.1631 41.9019 33.186 42.4987 33.143C42.5818 33.137 43.1791 32.8787 43.8259 32.569C44.4726 32.2594 45.7185 31.8649 46.5945 31.6924C47.4704 31.5199 49.0232 31.1919 50.0451 30.9636C54.4422 29.9811 58.7292 30.8175 61.3272 33.1646C62.9769 34.655 63.4933 35.4894 63.2212 36.225C63.0654 36.6461 63.1096 37.0255 63.3589 37.4059C63.805 38.0867 63.8752 40.707 63.4863 42.1587C63.3301 42.7416 63.2382 43.8159 63.2821 44.5458C63.3749 46.0895 62.3863 52.8839 61.8532 54.3669C61.7482 54.6589 61.3777 55.7936 61.0297 56.8885C60.6818 57.9835 60.3257 58.939 60.2384 59.012C60.1511 59.085 60.0053 60.0476 59.9143 61.1511C59.8233 62.2546 59.5646 63.5983 59.3395 64.1372C59.1143 64.6761 59.0153 65.117 59.1194 65.117C59.2236 65.117 59.1655 65.2604 58.9903 65.4356C58.8151 65.6108 58.6718 66.0739 58.6718 66.4649C58.6718 66.8558 58.504 67.5785 58.299 68.0708C58.0939 68.5631 57.8649 69.3242 57.7901 69.7622C57.7153 70.2001 57.5261 70.9168 57.3696 71.3548C57.2132 71.7927 56.968 72.9275 56.8248 73.8764C56.6816 74.8253 56.2153 77.2143 55.7885 79.1851C54.7052 84.1877 54.5352 85.8935 55.067 86.4253C55.2977 86.656 55.4865 86.9728 55.4865 87.1292C55.4865 87.2856 55.606 87.4136 55.752 87.4136C55.898 87.4136 56.0211 87.6226 56.0257 87.8781C56.0392 88.6376 57.2279 90.3479 58.1187 90.8896C58.5748 91.167 59.0842 91.6928 59.2507 92.0581C59.5914 92.8061 60.1813 92.94 60.3113 92.2989C60.3848 91.9362 60.5015 91.9577 61.1241 92.4485C61.8462 93.0178 66.3524 94.4236 66.388 94.0908C66.3983 93.9951 66.4926 94.1347 66.5975 94.401C66.7024 94.6672 66.9031 94.8978 67.0433 94.9132C67.1836 94.9287 67.7762 95.0457 68.3602 95.1732C71.1372 95.7795 81.1811 95.9882 82.1628 95.4601ZM31.5974 52.4094C31.5974 52.2817 32.1349 51.6162 32.7918 50.9306C33.4488 50.2449 33.9895 49.5431 33.9935 49.3711C34.0022 48.9897 35.7553 47.0675 36.0944 47.0675C36.228 47.0675 36.5026 46.9021 36.7047 46.7001C37.0623 46.3424 37.9395 45.832 40.7256 44.3601C42.1456 43.61 43.8353 43.0045 44.7364 42.9228C45.0284 42.8963 46.3423 42.759 47.6562 42.6175C50.5854 42.3022 51.7704 42.2952 51.7704 42.5932C51.7704 42.7182 52.1502 42.8205 52.6144 42.8205C53.4695 42.8205 56.2854 43.623 57.7427 44.282C58.1807 44.4801 58.8078 44.7181 59.1363 44.8109C59.4648 44.9038 59.7335 45.0982 59.7335 45.243C59.7335 45.3877 59.8465 45.4364 59.9845 45.3511C60.4478 45.0648 58.8562 42.848 57.9418 42.5058C57.4506 42.322 57.0791 41.9956 57.0791 41.7478C57.0791 41.4362 56.646 41.2119 55.5529 40.9577C54.7135 40.7625 53.5489 40.4304 52.9649 40.2196C52.3809 40.0089 50.7643 39.7998 49.3724 39.7549C47.9804 39.7101 46.7262 39.6459 46.5853 39.6122C46.4443 39.5785 46.0901 39.641 45.7981 39.7511C43.2625 40.7066 42.5087 40.968 41.8232 41.1295C40.7076 41.3922 36.5559 43.4773 36.1325 43.9876C35.9382 44.2216 35.6446 44.4132 35.48 44.4134C35.1611 44.4137 32.438 47.2188 31.3319 48.6864C30.0332 50.4098 29.9622 50.7352 30.5999 52.0444C30.8808 52.6212 31.5974 52.8834 31.5974 52.4094ZM48.5005 51.7251C49.4452 51.0897 49.6983 50.7104 50.2017 49.1746C50.7805 47.4092 50.7833 47.3391 50.3332 45.908C50.0802 45.1037 49.7327 44.3344 49.561 44.1985C49.1357 43.8619 47.1869 43.2249 46.8653 43.3173C46.7222 43.3584 46.3042 43.4374 45.9362 43.493C45.5683 43.5485 44.6819 43.7779 43.9665 44.0028C42.9966 44.3078 42.5746 44.3362 42.3075 44.1145C42.026 43.8809 41.9493 43.9379 41.9493 44.3806C41.9493 44.6905 41.8261 44.944 41.6756 44.944C41.525 44.944 41.3248 45.153 41.2306 45.4085C41.1364 45.664 40.7713 46.2564 40.4192 46.7251C39.9093 47.4037 39.8176 47.7527 39.9685 48.4398C40.3416 50.1386 41.6877 52.1095 42.6793 52.4087C42.8617 52.4638 43.9965 52.5005 45.2009 52.4902C47.1446 52.4735 47.5155 52.3875 48.5005 51.7251ZM108.972 49.308C109.556 48.947 110.224 48.5849 110.456 48.5032C111.016 48.3064 112.133 44.883 111.918 44.0242C111.827 43.6622 111.492 43.1239 111.175 42.8278L110.597 42.2896H111.644C113.084 42.2896 114.124 42.6243 115.466 43.5193C116.094 43.9379 117.092 44.5824 117.683 44.9515C118.671 45.5679 120.459 47.6578 120.501 48.2448C120.51 48.3814 120.778 48.7696 121.095 49.1075C121.668 49.7171 123 49.95 123.284 49.4901C123.529 49.095 121.243 44.9039 120.661 44.6799C120.364 44.5653 119.778 44.0403 119.361 43.5133C118.943 42.9863 118.478 42.5551 118.327 42.5551C118.176 42.5551 117.195 42.1427 116.147 41.6388C111.711 39.5051 107.128 38.6189 103.663 39.2247C103.079 39.3268 102.064 39.4559 101.407 39.5115C99.9457 39.6353 99.5522 39.7294 96.3276 40.7255C94.2197 41.3767 93.5547 41.7191 92.5452 42.6726C91.5333 43.6285 91.3203 43.9946 91.3203 44.7783C91.3203 45.7047 91.3406 45.7232 92.183 45.5661C92.6575 45.4776 93.404 45.1967 93.842 44.9418C94.2799 44.687 95.2952 44.2692 96.0982 44.0134C96.9011 43.7576 98.2413 43.2651 99.0763 42.919C99.9114 42.5728 101.068 42.2896 101.647 42.2896C102.226 42.2896 103.026 42.1653 103.426 42.0134C103.826 41.8614 104.327 41.8038 104.539 41.8853C104.841 42.0011 104.776 42.1718 104.242 42.6663C103.464 43.3872 102.734 44.9641 102.734 45.9229C102.734 46.8216 103.147 47.5446 104.413 48.8591C105.384 49.8676 105.627 49.986 106.704 49.9757C107.508 49.9681 108.264 49.7454 108.972 49.308ZM129.794 39.785C130.202 39.2933 129.721 38.3098 129.069 38.304C128.738 38.3011 128.705 38.242 128.95 38.0868C129.198 37.9292 129.083 37.6709 128.507 37.0955C128.079 36.6675 127.63 36.3171 127.508 36.3168C127.158 36.316 125.014 34.7991 124.195 33.9724C123.311 33.0812 120.015 30.8759 119.566 30.8759C119.394 30.8759 119.19 30.637 119.114 30.345C119.029 30.0196 118.752 29.8142 118.399 29.8142C118.081 29.8142 117.085 29.5308 116.184 29.1844C113.773 28.2574 111.512 27.7591 107.645 27.3023C103.347 26.7947 102.399 26.7421 101.999 26.9893C101.824 27.0971 100.145 27.2307 98.2661 27.2863C95.0981 27.38 92.4601 27.8363 91.2576 28.4986C91.0041 28.6382 90.6229 28.7524 90.4106 28.7524C89.8601 28.7524 89.764 29.0001 89.5893 30.8703L89.4337 32.5359L90.1779 32.3677C90.5873 32.2752 91.3402 32.1244 91.8512 32.0327C92.3622 31.9409 92.9594 31.7182 93.1784 31.5377C93.8514 30.983 96.1742 30.3423 97.9717 30.2156L99.6815 30.0951L98.7525 30.4889L97.8235 30.8827L98.7351 30.7434C99.2365 30.6668 99.8337 30.4372 100.062 30.2331C100.397 29.9344 100.918 29.9092 102.734 30.1038C103.975 30.2368 105.408 30.2808 105.919 30.2016C106.43 30.1224 107.684 30.2452 108.706 30.4745C109.728 30.7038 111.401 31.0484 112.422 31.2403C113.444 31.4322 114.663 31.787 115.13 32.0288C115.597 32.2707 116.194 32.4703 116.457 32.4724C116.72 32.4745 117.233 32.6462 117.598 32.8538C117.963 33.0614 118.762 33.4774 119.374 33.7782C119.986 34.079 120.559 34.4431 120.648 34.5873C120.737 34.7315 121.402 35.1328 122.126 35.4791C122.85 35.8255 124.044 36.6634 124.779 37.3412C125.515 38.019 126.261 38.5784 126.437 38.5844C126.612 38.5904 127.234 38.9438 127.818 39.3698C129.029 40.2533 129.35 40.3207 129.794 39.785ZM58.6718 33.2648C57.8043 32.5863 57.2885 32.5943 58.1039 33.2737C58.4486 33.5608 58.8667 33.793 59.033 33.7898C59.1993 33.7865 59.0367 33.5503 58.6718 33.2648ZM100.479 22.1182C100.214 21.8253 99.884 21.5857 99.7453 21.5857C99.6066 21.5857 99.7726 21.8761 100.114 22.231C100.849 22.9946 101.18 22.8923 100.479 22.1182ZM98.6806 21.1599C98.5924 21.0717 98.3635 21.0622 98.1719 21.1389C97.9601 21.2236 98.023 21.2865 98.3323 21.2993C98.6121 21.3108 98.7688 21.2481 98.6806 21.1599Z" fill="#B2CCDF"/>
<path fill-rule="evenodd" clip-rule="evenodd" d="M148.968 73.1655C148.077 72.8505 147.863 72.6631 148.005 72.3238C148.335 71.5371 148.715 67.1708 148.725 64.0569C148.733 61.3075 148.274 55.494 148.014 55.0684C147.957 54.9755 147.828 53.7072 147.728 52.2501C147.627 50.7929 147.452 49.4193 147.339 49.1975C147.226 48.9758 147.069 48.292 146.991 47.678C146.856 46.6116 146.887 46.5499 147.685 46.2986C149.366 45.7697 151.988 45.9438 153.432 46.6802C155.278 47.622 156.638 50.4238 156.777 53.5722C156.828 54.7401 156.968 56.6964 157.088 57.9194C157.305 60.1352 157.067 63.8312 156.659 64.5878C156.541 64.8068 156.216 65.7922 155.936 66.7776C155.657 67.7631 155.338 68.5693 155.227 68.5693C155.115 68.5693 155.024 68.719 155.024 68.902C155.024 69.4101 153.304 71.7178 152.178 72.7197C151.072 73.7046 150.656 73.7623 148.968 73.1655Z" fill="#B2CCDF"/>
</svg>
