<svg width="658" height="94" viewBox="0 0 658 94" fill="none" xmlns="http://www.w3.org/2000/svg">
<path fill-rule="evenodd" clip-rule="evenodd" d="M128.639 0.710938C129.925 0.91394 130.779 1.06314 131.371 1.97182C131.512 2.20298 131.652 2.81241 131.603 3.23271C128.339 6.50029 121.496 5.69059 116.031 7.01536C101.182 9.6069 86.3284 12.1993 71.2903 14.7908C67.5597 16.2139 62.723 23.1715 59.2908 25.9286C50.3293 33.1279 41.4037 40.338 30.0803 45.0731C24.3799 47.7411 4.29905 54.6755 0.86986 45.7035C-2.77473 36.5577 15.2656 28.4481 20.6237 25.2982C27.7878 21.0866 36.0954 19.8428 45.0008 17.1024C60.3916 12.3663 79.191 9.3978 96.0666 5.98564C106.923 4.35363 117.783 2.53207 128.639 0.710938ZM60.5727 16.8923C56.6995 17.5437 52.6357 18.5735 48.3842 19.4141C35.7945 23.2516 23.1308 26.7261 13.2686 33.2838C9.59875 35.724 3.59358 38.9405 3.18148 44.4216C3.79763 45.3792 3.98298 46.0133 5.07281 46.3339C9.1587 48.6722 17.1552 46.4113 20.4136 45.0731C33.0289 40.8132 43.1442 35.6696 52.377 28.2402C54.3051 26.869 64.4903 18.6031 62.6532 17.1024C62.0228 17.0325 61.2032 16.9623 60.5727 16.8923ZM70.8489 19.6452C72.3836 21.3827 66.589 36.2624 65.4061 38.5585C60.665 51.0761 53.9586 62.4361 47.5226 73.4219C43.7597 79.8451 41.6036 87.7788 36.8261 93.3859C36.8051 93.316 36.4058 93.2458 36.1956 93.1758C36.1746 93.0356 35.7753 92.8957 35.7543 92.7555C35.7774 86.6413 40.8941 81.5912 43.3196 77.0155C44.9306 73.7725 46.542 70.3395 48.153 66.9074C52.779 59.0806 58.0045 50.979 61.8126 42.3201C63.5636 38.1176 65.3151 33.9138 67.0663 29.7113C68.3614 26.4 68.8286 22.4229 70.8489 19.6452ZM498.289 21.5155C502.651 21.3617 505.794 23.3472 506.484 26.7692C501.567 23.0175 494.545 25.0998 489.252 26.7902C477.074 31.3042 467.189 39.2108 460.672 49.0659C458.767 52.1914 454.216 58.1268 456.07 63.7552C457.931 68.3576 466.242 68.9319 472.672 67.748C482.837 65.9634 488.627 62.2673 495.998 58.7326C498.814 57.7592 503.409 55.9053 503.563 52.6173C503.472 52.2672 503.192 51.9167 502.723 51.5666C498.111 50.8393 491.409 52.0731 486.941 50.9572C486.661 50.7962 486.38 50.4459 486.1 50.0956C486.1 49.8154 486.1 49.5351 486.1 49.0659C491.97 44.8518 507.73 45.6157 508.166 53.8782C504.504 61.951 485.739 69.2181 475.383 71.1103C465.715 72.8766 455.908 70.2769 453.317 63.3559C450.634 56.5736 456.526 49.6625 459.222 45.7035C461.824 42.741 463.585 38.7804 466.578 36.436C468.098 35.8056 469.429 34.986 470.759 34.5447C475.288 31.6251 479.229 27.6348 484.629 25.5083C489 23.7872 493.718 23.5153 498.289 21.5155ZM223.416 28.0301C223.534 26.0188 223.373 24.524 221.966 23.638C219.382 21.3749 211.148 28.5273 209.147 29.9214C200.262 36.9025 193.19 47.7625 188.531 59.1319C187.239 62.286 184.107 69.471 186.871 73.4219C190.674 78.2562 206.208 73.9307 210.597 72.3922C219.008 69.9951 227.581 67.4737 233.923 62.7044C236.37 60.8642 237.4 57.8885 239.177 55.3493C241.153 52.5261 243.812 50.0996 246.322 47.784C249.475 44.8743 253.692 37.4203 261.032 40.4288C266.966 42.8608 266.477 50.0121 263.575 55.3493C260.647 61.4822 248.035 77.934 237.286 70.4799C236.165 69.0091 235.044 67.5376 233.923 65.8776C229.121 66.2112 226.068 69.5474 222.176 71.1103C215.553 73.9856 207.679 76.0364 199.879 77.4147C191.901 78.8246 184.747 77.1666 183.278 70.5009C182.119 65.5782 185.079 60.5437 186.241 57.4507C191.417 46.0315 198.844 34.5819 208.306 27.82C211.99 25.3719 220.286 19.3407 225.307 24.2685C225.338 26.1959 225 26.9674 224.467 28.0301C224.116 28.0301 223.766 28.0301 223.416 28.0301ZM655.899 26.5591C656.39 26.629 656.88 26.6992 657.37 26.7692C657.51 27.0493 657.65 27.3297 657.602 27.4207C656.956 31.7766 647.427 43.0926 644.362 46.7332C642.73 48.6243 640.909 50.5161 638.898 52.2181C638.807 54.0182 638.527 55.6296 638.058 57.2406C636.98 60.4231 635.099 64.6943 633.855 67.9791C633.365 70.4025 633.767 72.2525 632.174 73.6321C632.083 73.6321 631.802 73.6321 631.333 73.6321C629.951 71.248 630.548 67.1814 631.312 63.9863C632.643 60.2531 633.974 56.3296 635.305 52.2181C635.165 50.9364 635.025 49.4649 634.695 47.9941C633.964 42.6099 634.952 33.9972 636.587 30.5519C637.007 30.692 637.616 30.832 637.848 30.783C639.034 34.9921 638.114 39.3806 638.898 43.581C639.438 43.651 639.788 43.7212 640.138 43.7912C646.039 38.7382 650.08 31.7445 655.899 26.5591ZM381.888 28.8707C388.966 29.1397 399.022 34.8225 393.446 42.5513C392.226 44.8127 383.419 49.9237 383.569 51.3565C384.762 53.2909 401.008 62.7637 403.933 64.3856C405.683 65.3565 407.24 65.3993 408.556 66.6972C408.486 67.0475 408.416 67.3976 408.157 67.748C407.996 68.0281 407.645 68.3084 407.106 68.5885C403.61 68.5345 388.221 58.8806 384.41 56.6101C382.866 55.5239 381.807 53.8251 379.345 53.4579C377.517 55.4905 375.923 66.0788 372.621 62.7254C372.554 58.5427 379.203 37.8805 381.048 35.3853C381.587 35.4552 381.937 35.5254 382.098 35.5954C383.517 39.1198 380.743 42.074 381.657 45.6825C381.797 45.7525 381.937 45.8226 381.888 45.7035C387.482 45.9365 393.849 39.6958 390.483 34.3345C383.659 31.556 382.869 31.7415 377.454 35.3853C377.314 35.1751 377.174 34.7758 376.845 34.7548C374.639 31.1247 379.864 29.7052 381.888 28.8707ZM532.543 30.1526C532.774 30.4117 533.383 30.4819 533.615 30.5519C537.352 32.3333 535.241 37.8814 535.905 42.3201C536.686 47.5391 535.903 50.2872 535.905 56.8203C535.975 59.3419 536.045 61.864 535.926 64.3856C535.975 64.4556 535.835 64.5258 535.695 64.5957C535.415 64.5957 535.135 64.5957 534.665 64.5957C531.907 60.5323 533.479 55.1004 531.072 51.5666C523.165 51.6683 519.361 67.0066 512.6 70.4799C512.439 70.4099 512.089 70.3397 511.549 70.2697C510.716 69.525 510.172 68.8006 509.637 67.5378C511.739 62.6773 516.587 61.2466 518.904 56.8413C520.123 55.2988 518.924 53.2726 519.514 51.5666C520.554 49.557 523.536 49.2388 524.578 47.3637C527.025 43.925 527.523 39.7011 529.412 36.0367C530.042 35.5954 530.862 34.7758 531.303 34.3345C532.092 32.3442 531.446 31.855 532.543 30.1526ZM622.507 33.2838C623.186 33.3538 623.677 33.424 623.978 33.3048C623.68 38.2899 618.092 39.1246 615.782 42.3201C613.287 46.3661 617.89 53.9215 619.964 55.5804C619.894 55.7906 619.824 56.1899 619.754 56.2109C619.614 56.421 619.474 56.8203 619.145 56.8413C617.644 57.0683 616.926 56.7675 615.782 56.1898C615.392 54.4152 613.716 48.468 611.159 49.0659C608.165 51.0259 607.293 56.367 604.014 58.5015C603.923 58.4315 603.643 58.3613 603.173 58.1022C603.082 58.1512 602.802 58.0112 602.333 57.871C602.621 51.6254 610.918 46.7628 609.478 41.4795C608.826 39.3783 607.797 37.2764 606.956 35.1751C607.285 34.895 607.425 34.6146 607.565 34.3345C607.846 34.3345 608.126 34.3345 608.406 34.3345C609.737 35.8755 611.068 37.4168 612.399 38.9578C614.527 38.8237 620.72 34.5871 622.507 33.2838ZM591.174 34.3345C591.734 34.4747 592.295 34.6146 592.855 34.7548C595.827 40.7741 594.469 53.2732 592.855 60.6029C592.435 60.8831 591.825 61.1634 591.405 61.4435C591.174 61.0232 590.564 60.4138 590.144 59.9935C588.994 57.2194 590.814 52.3727 589.703 49.4651C589.353 49.1148 589.002 48.7647 588.463 48.4144C582.566 51.094 580.631 60.7093 575.014 63.1247C574.712 62.6344 574.222 62.144 573.543 61.4646C573.017 58.032 577.259 56.0133 577.746 52.8485C578.343 51.2379 577.423 49.8421 577.746 48.2042C580.036 46.9436 582.138 45.6823 584.05 44.4216C586.889 41.3541 588.293 37.1616 591.174 34.3345ZM557.361 34.7548C557.901 34.8248 558.251 34.895 558.601 34.965C564.545 43.1679 553.645 50.6275 553.137 57.4507C556.29 60.6618 569.798 52.9193 572.912 55.1391C571.276 59.1111 553.081 65.2964 546.644 63.9863C546.343 63.6152 545.852 63.0545 545.173 62.4943C544.562 59.1246 553.256 48.6235 554.629 44.4426C555.981 41.6624 555.86 37.2066 557.361 34.7548ZM357.28 37.907C377.934 37.3419 359.892 65.0341 349.084 62.7044C346.071 62.0551 345.631 59.6762 343.41 58.5015C336.272 56.562 327.947 60.0969 323.656 62.095C321.912 63.1733 319.282 66.0004 317.142 65.2472C316.791 65.0862 316.441 64.7359 315.902 64.3856C315.379 60.956 324.641 49.0266 326.388 45.052C327.169 43.2759 327.964 39.3186 329.54 38.3273C330.203 38.1455 330.208 38.2651 330.612 38.5375C332.206 44.6282 326.858 52.014 323.887 55.9797C324.147 56.33 324.217 56.6803 324.098 56.8413C324.308 57.1004 324.707 57.1706 324.728 57.2406C327.237 58.0455 332.005 55.7841 334.605 55.3493C337.806 55.6294 340.819 55.9097 343.641 56.1898C343.971 56.1199 344.111 56.0497 344.251 55.9797C344.391 55.9097 344.531 55.8395 344.482 55.5804C347.417 50.3995 349.766 46.3671 351.396 40.2186C353.117 39.5067 355.304 38.8382 357.28 37.907ZM308.946 39.7984C322.364 39.6241 313.635 53.1707 310.228 57.2406C308.073 60.2043 302.663 64.1126 297.829 62.074C296.194 61.2733 295.849 59.6865 293.206 59.3421C287.973 63.2905 281.95 67.7208 274.923 69.8704C271.082 71.4379 266.699 70.5585 265.256 67.3277C264.108 64.0449 266.881 60.3417 267.778 58.5015C271.928 51.7934 275.615 43.2755 283.098 40.2186C283.658 40.4498 284.219 41.0592 284.779 41.4795C284.709 42.0398 284.639 42.6005 284.569 43.1607C279.819 45.3982 265.116 61.3593 269.018 67.9581C276.851 69.0172 293.563 57.4158 296.968 52.8275C298.295 51.0381 300.573 48.3919 301.192 46.3339C302.105 44.8465 301.388 43.3635 302.642 42.3201C304.378 40.8743 306.727 40.8772 308.946 39.7984ZM531.093 40.4498C530.21 42.1259 529.168 43.5009 528.781 45.7035C529.576 46.6784 529.784 46.8148 530.462 47.3637C531.142 47.2235 531.632 47.0835 531.933 46.9434C533.139 45.5993 534.526 40.7844 531.093 40.4498ZM358.12 40.8491C354.74 43.0668 346.935 53.373 347.634 58.7116C347.963 58.7326 348.103 59.1319 348.244 59.3421C354.464 60.9119 366.721 47.665 362.344 41.4795C361.063 41.2694 359.591 40.8701 358.12 40.8491ZM589.304 41.6897C589.283 41.9698 588.883 42.2501 588.862 42.5303C588.964 43.5724 588.961 43.4925 589.304 43.8122C589.843 43.7912 590.193 43.3919 590.543 43.1817C590.498 42.4225 590.395 42.238 589.934 41.6897C589.913 41.6897 589.514 41.6897 589.304 41.6897ZM256.43 42.5303C252.683 44.7257 252.054 49.9434 249.474 53.4579C246.773 57.1378 241.387 58.4977 238.757 62.074C237.886 63.2579 237.788 65.2989 238.126 67.1175C238.687 67.6078 239.247 68.0983 239.807 68.5885C248.429 73.4444 259.819 57.7504 261.663 52.8485C262.879 49.9294 263.548 44.4531 260.402 42.9506C259.559 42.4643 258.035 42.484 256.43 42.5303ZM310.228 42.9506C307.617 45.602 297.914 54.2754 298.649 58.7116C298.999 58.9917 299.349 59.2721 299.51 59.3631C305.044 61.002 316.734 47.8737 311.678 42.9506C311.258 42.9506 310.648 42.9506 310.228 42.9506ZM103.863 44.8419C104.283 44.9119 104.893 44.9821 105.313 45.052C106.26 48.6525 96.8816 66.0981 95.226 70.2697C94.2394 72.756 93.5623 76.508 91.2332 77.6249C90.9531 77.6949 90.6728 77.7651 90.3926 77.6459C90.0425 77.4147 89.6922 76.8053 89.1528 76.385C89.9703 71.2482 95.494 65.0812 94.8057 60.6029C94.5256 60.4628 94.2453 60.3228 93.9652 59.9935C80.8532 62.7273 81.7655 71.0664 75.2831 79.7264C74.8417 79.5862 74.0222 79.4462 73.5809 79.3061C73.5109 79.0959 73.4407 78.6966 73.3707 78.6756C73.8372 74.8072 76.7228 72.7402 77.5947 69.24C78.6139 66.8389 76.4397 65.7923 77.5737 63.7552C84.4249 61.5568 84.9038 52.1914 88.7115 46.9434C89.6599 46.9885 89.8444 47.0921 90.3926 47.3637C90.3926 47.4336 90.3926 47.5038 90.3926 47.5738C90.0512 49.7991 84.8504 59.6777 86.631 60.6029C88.0808 60.3228 89.3421 60.0425 90.6028 59.7624C92.818 59.1393 94.4403 59.308 96.0666 58.1022C100.114 55.7609 100.816 48.2948 103.863 44.8419ZM131.392 46.1028C133.333 46.1728 135.084 46.2429 136.835 46.3129C136.975 46.4531 137.115 46.593 137.256 46.7332C137.186 46.7542 137.115 47.1535 137.045 47.3637C132.97 48.4623 125.994 49.3752 122.566 51.5876C121.775 53.3178 120.794 54.859 119.813 56.2109C118.928 57.6949 117.669 58.6267 118.363 60.6029C122.138 61.1907 124.203 58.0877 127.799 58.7326C127.799 58.9917 127.799 59.0619 127.799 59.1319C124.131 66.2214 108.023 63.022 110.357 75.5234C114.488 80.8143 125.705 71.991 129.69 72.7915C129.69 72.8615 129.69 72.9317 129.69 73.0016C129.62 73.2818 129.55 73.5621 129.48 73.8422C126.441 80.3822 109.038 82.1643 105.944 74.4727C106.719 66.5921 111.798 62.8801 114.37 57.2406C116.066 54.1651 114.11 51.9537 116.892 50.0956C120.937 47.6843 127.193 48.345 131.392 46.1028Z" fill="#281318"/>
</svg>
